<svg viewBox="0 0 301 68" xmlns="http://www.w3.org/2000/svg" xml:space="preserve" style="fill-rule:evenodd;clip-rule:evenodd;stroke-linejoin:round;stroke-miterlimit:2"><path style="fill:none" d="M-22 24h276v84H-22z" transform="matrix(1.08696 0 0 .80952 24.014 -19.429)"/><path d="M51.969 33.426c-.849 0-1.698.045-2.502.224v8.309c-1.161-.447-2.501-.67-4.288-.67-6.344 0-11.526 4.333-11.526 11.302 0 7.148 4.735 11.079 11.704 11.079 3.44 0 6.969-.938 9.158-2.1V33.65c-.848-.179-1.742-.224-2.546-.224Zm-6.701 25.821c-3.842 0-6.478-2.591-6.478-6.745 0-4.11 2.815-6.746 6.567-6.746 1.519 0 2.904.179 4.11.938v11.883c-1.34.492-2.725.715-4.199.67ZM70.241 41.199c-4.557 0-8.265 1.787-10.141 3.351V63c.848.179 1.697.223 2.501.223.849 0 1.743-.044 2.547-.223V47.007c.983-.581 2.725-1.162 4.69-1.162 3.262 0 5.138 1.475 5.138 5.361V63c.893.179 1.697.223 2.546.223.804 0 1.698-.044 2.547-.223V50c0-4.869-2.993-8.801-9.828-8.801ZM92.89 63.715c5.808 0 9.203-2.681 9.203-7.103 0-4.2-3.351-5.763-7.952-6.478-3.619-.581-4.557-1.251-4.557-2.636 0-1.34 1.162-2.189 3.842-2.189 2.546 0 4.735.76 6.21 1.609 1.027-.805 1.697-2.055 1.921-3.619-1.385-.983-4.11-2.055-7.952-2.055-5.361 0-8.89 2.68-8.89 6.612 0 4.467 3.574 5.852 7.326 6.433 3.797.58 5.004 1.385 5.004 2.814 0 1.43-1.073 2.546-4.066 2.546-3.35 0-5.226-1.161-6.522-2.099-1.072.67-1.921 1.876-2.323 3.484 1.206 1.028 4.021 2.681 8.756 2.681ZM109.151 38.653c1.742 0 3.217-1.43 3.217-3.217 0-1.786-1.475-3.216-3.217-3.216-1.832 0-3.306 1.43-3.306 3.216 0 1.787 1.474 3.217 3.306 3.217Zm0 24.57c.849 0 1.698-.044 2.502-.223V41.869c-.804-.178-1.698-.223-2.502-.223-.849 0-1.697.045-2.546.223V63c.849.179 1.742.223 2.546.223ZM141.45 41.199c-2.859 0-5.45 1.117-7.192 2.457-1.564-1.519-3.887-2.457-6.925-2.457-4.422 0-8.264 1.877-9.962 3.351V63c.849.179 1.698.223 2.502.223.849 0 1.742-.044 2.546-.223V47.007c1.117-.67 2.681-1.162 4.333-1.162 3.44 0 4.736 2.189 4.736 5.227V63c.849.179 1.697.223 2.591.223.804 0 1.698-.044 2.502-.223V49.553c0-.67-.09-1.34-.224-1.965 1.028-.849 2.457-1.743 4.512-1.743 3.44 0 4.78 2.189 4.78 5.227V63c.804.179 1.653.223 2.547.223.804 0 1.697-.044 2.501-.223V49.553c0-4.601-3.127-8.354-9.247-8.354ZM165.574 41.244c-4.021 0-7.371 1.564-9.426 3.261v26.76c.893.178 1.697.223 2.546.223.849 0 1.698-.045 2.502-.223v-8.22c1.34.446 2.769.625 4.556.625 5.897 0 11.213-4.155 11.213-11.302 0-7.327-4.914-11.124-11.391-11.124Zm-.179 17.914c-1.653 0-2.993-.268-4.199-.849V46.918c1.295-.715 2.68-1.028 4.154-1.028 3.887 0 6.523 2.457 6.523 6.522 0 4.2-2.636 6.746-6.478 6.746ZM184.113 63.223c.849 0 1.742-.044 2.547-.223V33.694c-.849-.178-1.743-.223-2.591-.223-.849 0-1.698.045-2.502.223V63c.893.179 1.742.223 2.546.223ZM211.587 50.804c0-5.673-4.02-9.56-9.694-9.56-6.031 0-10.632 4.735-10.632 11.302 0 6.925 4.557 11.124 10.9 11.124 4.244 0 7.014-1.563 8.801-2.993-.179-1.296-1.072-2.725-2.189-3.44-1.385.983-3.172 2.189-6.254 2.189-3.53 0-5.674-2.144-6.076-5.629h14.966c.134-1.161.178-1.876.178-2.993Zm-15.099-.357c.357-2.904 2.278-5.093 5.405-5.093 3.44.045 4.736 2.591 4.736 5.093h-10.141Z" style="fill-rule:nonzero" transform="matrix(1.67478 0 0 1.67478 -55.26 -52.844)"/></svg>