<?xml version="1.0" encoding="UTF-8"?>
<svg id="Layer_1" xmlns="http://www.w3.org/2000/svg" xmlns:xlink="http://www.w3.org/1999/xlink" version="1.1" viewBox="0 0 826.4 193.4">
  <!-- Generator: Adobe Illustrator 29.1.0, SVG Export Plug-In . SVG Version: 2.1.0 Build 142)  -->
  <defs>
    <style>
      .st0 {
        fill: url(#linear-gradient8);
      }

      .st1 {
        fill: url(#linear-gradient7);
      }

      .st2 {
        fill: url(#linear-gradient5);
      }

      .st3 {
        letter-spacing: 0em;
      }

      .st3, .st4 {
        font-family: Montserrat-Bold, Montserrat;
        font-size: 144px;
        font-weight: 700;
      }

      .st3, .st4, .st5 {
        fill: #3a1d4c;
      }

      .st4 {
        letter-spacing: 0em;
      }

      .st6 {
        fill: url(#linear-gradient31);
      }

      .st7 {
        fill: url(#linear-gradient29);
      }

      .st8 {
        fill: url(#linear-gradient13);
      }

      .st9 {
        fill: url(#linear-gradient15);
      }

      .st10 {
        fill: url(#linear-gradient16);
      }

      .st11 {
        fill: url(#linear-gradient23);
      }

      .st12 {
        fill: url(#linear-gradient24);
      }

      .st13 {
        fill: url(#linear-gradient21);
      }

      .st14 {
        fill: url(#linear-gradient);
      }

      .st15 {
        fill: #dc41a2;
      }

      .st16 {
        fill: #78d7d8;
      }

      .st17 {
        fill: #ad3989;
      }

      .st18 {
        fill: #fff;
      }

      .st19 {
        fill: #9ad7d8;
      }

      .st20 {
        fill: #ffd74e;
      }

      .st21 {
        fill: url(#linear-gradient27);
      }

      .st21, .st22, .st23, .st24, .st25, .st26, .st27, .st28, .st29, .st30, .st31, .st32, .st33, .st34, .st35, .st36, .st37, .st38, .st39, .st40 {
        isolation: isolate;
      }

      .st21, .st22, .st23, .st24, .st25, .st26, .st27, .st28, .st29, .st30, .st31, .st41, .st36, .st37, .st38, .st39, .st40 {
        opacity: .5;
      }

      .st22 {
        fill: url(#linear-gradient20);
      }

      .st23 {
        fill: url(#linear-gradient25);
      }

      .st24 {
        fill: url(#linear-gradient26);
      }

      .st25 {
        fill: url(#linear-gradient19);
      }

      .st26 {
        fill: url(#linear-gradient17);
      }

      .st27 {
        fill: url(#linear-gradient11);
      }

      .st28 {
        fill: url(#linear-gradient18);
      }

      .st29 {
        fill: url(#linear-gradient12);
      }

      .st30 {
        fill: url(#linear-gradient10);
      }

      .st31 {
        fill: url(#linear-gradient28);
      }

      .st32 {
        fill: url(#linear-gradient22);
      }

      .st32, .st33, .st34, .st35 {
        opacity: .4;
      }

      .st33 {
        fill: url(#linear-gradient14);
      }

      .st34 {
        fill: url(#linear-gradient30);
      }

      .st42 {
        fill: #f9d759;
      }

      .st43 {
        fill: #c7378d;
      }

      .st35 {
        fill: url(#linear-gradient6);
      }

      .st36 {
        fill: url(#linear-gradient4);
      }

      .st37 {
        fill: url(#linear-gradient3);
      }

      .st38 {
        fill: url(#linear-gradient1);
      }

      .st39 {
        fill: url(#linear-gradient2);
      }

      .st40 {
        fill: url(#linear-gradient9);
      }

      .st44 {
        display: none;
      }
    </style>
    <linearGradient id="linear-gradient" x1="-2832" y1="4038.3" x2="-2702.1" y2="4038.3" gradientTransform="translate(-1684.4 564.9) rotate(-127.2) scale(.4)" gradientUnits="userSpaceOnUse">
      <stop offset="0" stop-color="#1e1919" stop-opacity="0"/>
      <stop offset="0" stop-color="#e5e5e4" stop-opacity="0"/>
      <stop offset=".4" stop-color="#fba9bd" stop-opacity=".4"/>
      <stop offset=".7" stop-color="#ff6d9c" stop-opacity=".8"/>
      <stop offset=".8" stop-color="#ff4d8f"/>
    </linearGradient>
    <linearGradient id="linear-gradient1" x1="-2712.6" y1="4085.5" x2="-2809.4" y2="4008.2" xlink:href="#linear-gradient"/>
    <linearGradient id="linear-gradient2" x1="-2833.2" y1="4046.1" x2="-2691.9" y2="4046.1" xlink:href="#linear-gradient"/>
    <linearGradient id="linear-gradient3" x1="-2710.2" y1="4028.6" x2="-2827.2" y2="4073" xlink:href="#linear-gradient"/>
    <linearGradient id="linear-gradient4" x1="-2753.8" y1="4106" x2="-2741.2" y2="4060.8" xlink:href="#linear-gradient"/>
    <linearGradient id="linear-gradient5" x1="-2783.3" y1="4059.7" x2="-2714.2" y2="4059.7" xlink:href="#linear-gradient"/>
    <linearGradient id="linear-gradient6" x1="-2782" y1="3999.1" x2="-2837.7" y2="4020.2" xlink:href="#linear-gradient"/>
    <linearGradient id="linear-gradient7" x1="-3377.4" y1="2485.2" x2="-3519" y2="2372" gradientTransform="translate(-1322 -80.1) rotate(164.3) scale(.4 -.4)" gradientUnits="userSpaceOnUse">
      <stop offset="0" stop-color="#1e1919" stop-opacity="0"/>
      <stop offset=".3" stop-color="#e5e5e4" stop-opacity="0"/>
      <stop offset=".4" stop-color="#e6e2e2" stop-opacity="0"/>
      <stop offset=".4" stop-color="#f4becb" stop-opacity=".2"/>
      <stop offset=".5" stop-color="#ff9eb7" stop-opacity=".3"/>
      <stop offset=".6" stop-color="#ff85a8" stop-opacity=".4"/>
      <stop offset=".7" stop-color="#ff719d" stop-opacity=".6"/>
      <stop offset=".8" stop-color="#ff5e95" stop-opacity=".7"/>
      <stop offset=".9" stop-color="#ff5290" stop-opacity=".9"/>
      <stop offset="1" stop-color="#ff4d8f"/>
    </linearGradient>
    <linearGradient id="linear-gradient8" x1="-2832" y1="4038.3" x2="-2702.1" y2="4038.3" gradientTransform="translate(-1684.4 564.9) rotate(-127.2) scale(.4)" gradientUnits="userSpaceOnUse">
      <stop offset="0" stop-color="#1e1919" stop-opacity="0"/>
      <stop offset="0" stop-color="#e5e5e4" stop-opacity="0"/>
      <stop offset=".4" stop-color="#d792b7" stop-opacity=".5"/>
      <stop offset=".7" stop-color="#cc5597" stop-opacity=".8"/>
      <stop offset=".8" stop-color="#c7378d"/>
    </linearGradient>
    <linearGradient id="linear-gradient9" x1="-2712.6" y1="4085.5" x2="-2809.4" y2="4008.2" xlink:href="#linear-gradient8"/>
    <linearGradient id="linear-gradient10" x1="-2833.2" y1="4046.1" x2="-2691.9" y2="4046.1" gradientTransform="translate(-1684.4 564.9) rotate(-127.2) scale(.4)" gradientUnits="userSpaceOnUse">
      <stop offset="0" stop-color="#1e1919" stop-opacity="0"/>
      <stop offset="0" stop-color="#e5e5e4" stop-opacity="0"/>
      <stop offset=".4" stop-color="#d792b7" stop-opacity=".5"/>
      <stop offset=".7" stop-color="#cc5597" stop-opacity=".8"/>
      <stop offset=".8" stop-color="#c7378d"/>
    </linearGradient>
    <linearGradient id="linear-gradient11" x1="-2710.2" y1="4028.6" x2="-2827.2" y2="4073" gradientTransform="translate(-1684.4 564.9) rotate(-127.2) scale(.4)" gradientUnits="userSpaceOnUse">
      <stop offset="0" stop-color="#1e1919" stop-opacity="0"/>
      <stop offset="0" stop-color="#e5e5e4" stop-opacity="0"/>
      <stop offset=".4" stop-color="#d792b7" stop-opacity=".5"/>
      <stop offset=".7" stop-color="#cc5597" stop-opacity=".8"/>
      <stop offset=".8" stop-color="#c7378d"/>
    </linearGradient>
    <linearGradient id="linear-gradient12" x1="-2753.8" y1="4106" x2="-2741.2" y2="4060.8" xlink:href="#linear-gradient8"/>
    <linearGradient id="linear-gradient13" x1="-2783.3" y1="4059.7" x2="-2714.2" y2="4059.7" xlink:href="#linear-gradient8"/>
    <linearGradient id="linear-gradient14" x1="-2782" y1="3999.1" x2="-2837.7" y2="4020.2" xlink:href="#linear-gradient8"/>
    <linearGradient id="linear-gradient15" x1="-3377.4" y1="2485.2" x2="-3519" y2="2372" gradientTransform="translate(-1322 -80.1) rotate(164.3) scale(.4 -.4)" gradientUnits="userSpaceOnUse">
      <stop offset="0" stop-color="#1e1919" stop-opacity="0"/>
      <stop offset=".3" stop-color="#e5e5e4" stop-opacity="0"/>
      <stop offset=".4" stop-color="#e1d2d9" stop-opacity="0"/>
      <stop offset=".5" stop-color="#dbaac3" stop-opacity=".2"/>
      <stop offset=".6" stop-color="#d588b1" stop-opacity=".3"/>
      <stop offset=".6" stop-color="#d070a3" stop-opacity=".5"/>
      <stop offset=".7" stop-color="#cc5998" stop-opacity=".6"/>
      <stop offset=".8" stop-color="#c94791" stop-opacity=".7"/>
      <stop offset=".9" stop-color="#c83c8e" stop-opacity=".9"/>
      <stop offset="1" stop-color="#c7378d"/>
    </linearGradient>
    <linearGradient id="linear-gradient16" x1="-2218.1" y1="4504.8" x2="-2088.2" y2="4504.8" xlink:href="#linear-gradient"/>
    <linearGradient id="linear-gradient17" x1="-2098.7" y1="4552" x2="-2195.5" y2="4474.6" xlink:href="#linear-gradient"/>
    <linearGradient id="linear-gradient18" x1="-2219.3" y1="4512.6" x2="-2078" y2="4512.6" xlink:href="#linear-gradient"/>
    <linearGradient id="linear-gradient19" x1="-2096.3" y1="4495.1" x2="-2213.3" y2="4539.5" xlink:href="#linear-gradient"/>
    <linearGradient id="linear-gradient20" x1="-2139.9" y1="4572.5" x2="-2127.3" y2="4527.3" xlink:href="#linear-gradient"/>
    <linearGradient id="linear-gradient21" x1="-2169.4" y1="4526.1" x2="-2100.3" y2="4526.1" xlink:href="#linear-gradient"/>
    <linearGradient id="linear-gradient22" x1="-2168.1" y1="4465.5" x2="-2223.8" y2="4486.7" xlink:href="#linear-gradient"/>
    <linearGradient id="linear-gradient23" x1="-3586.6" y1="1743.1" x2="-3728.2" y2="1630" xlink:href="#linear-gradient7"/>
    <linearGradient id="linear-gradient24" x1="-2218.1" y1="4504.8" x2="-2088.2" y2="4504.8" xlink:href="#linear-gradient8"/>
    <linearGradient id="linear-gradient25" x1="-2098.7" y1="4552" x2="-2195.5" y2="4474.6" xlink:href="#linear-gradient8"/>
    <linearGradient id="linear-gradient26" x1="-2219.3" y1="4512.6" x2="-2078" y2="4512.6" xlink:href="#linear-gradient10"/>
    <linearGradient id="linear-gradient27" x1="-2096.3" y1="4495.1" x2="-2213.3" y2="4539.5" xlink:href="#linear-gradient11"/>
    <linearGradient id="linear-gradient28" x1="-2139.9" y1="4572.5" x2="-2127.3" y2="4527.3" xlink:href="#linear-gradient8"/>
    <linearGradient id="linear-gradient29" x1="-2169.4" y1="4526.1" x2="-2100.3" y2="4526.1" xlink:href="#linear-gradient8"/>
    <linearGradient id="linear-gradient30" x1="-2168.1" y1="4465.5" x2="-2223.8" y2="4486.7" xlink:href="#linear-gradient8"/>
    <linearGradient id="linear-gradient31" x1="-3586.6" y1="1743.1" x2="-3728.2" y2="1630" xlink:href="#linear-gradient15"/>
  </defs>
  <path class="st5" d="M572.6-628.7c1.4.8,2.6,2,3.5,3.5.8,1.5,1.3,3.2,1.3,4.9,0,1.7-.4,3.4-1.3,4.9-.8,1.5-2,2.7-3.5,3.5-3,1.7-6.7,1.7-9.8,0-1.4-.8-2.6-2-3.5-3.5-1.7-3-1.7-6.7,0-9.7.8-1.5,2-2.7,3.5-3.5,3-1.7,6.8-1.7,9.8,0h0ZM572-612.9c2.7-1.6,4.3-4.4,4.3-7.5,0-1.5-.4-3-1.1-4.4-.7-1.3-1.8-2.3-3.1-3.1-2.7-1.5-6.1-1.5-8.8,0-1.3.7-2.4,1.8-3.1,3.1-1.5,2.7-1.5,6,0,8.7.7,1.3,1.8,2.4,3.1,3.1,2.7,1.5,6,1.5,8.7,0h0ZM571.9-620.1c-.5.6-1.1,1.1-1.8,1.3l2.6,3.9h-1.5l-2.4-3.7c-.2,0-.4,0-.6,0h-2.8v3.7h-1.4v-11h4.3c1.1,0,2.3.3,3.2,1,.8.7,1.2,1.6,1.2,2.7,0,.8-.2,1.5-.6,2.1h0ZM570.4-620.3c.5-.5.8-1.1.8-1.9,0-.7-.3-1.4-.8-1.8-.7-.5-1.4-.7-2.3-.6h-2.8v5h2.8c.8,0,1.6-.2,2.3-.7h0Z"/>
  <path class="st5" d="M-37-535v19h-79v-102.1H-38.9v19h-53.7v22.2h47.4v18.4h-47.4v23.6h55.6Z"/>
  <path class="st5" d="M-25.9-624.3H-3.2v108.2h-22.7v-108.2Z"/>
  <path class="st5" d="M13-609.1c-2.6-2.3-4-5.6-3.9-9,0-3.4,1.4-6.7,3.9-9,2.8-2.5,6.5-3.8,10.2-3.6,3.7-.2,7.4,1.1,10.2,3.5,2.6,2.2,4,5.4,3.9,8.7,0,3.6-1.3,7-3.9,9.4-2.8,2.5-6.4,3.9-10.2,3.7-3.7.2-7.4-1.1-10.2-3.6ZM11.9-594.5h22.7v78.5H11.9v-78.5Z"/>
  <path class="st5" d="M99.5-516.1l-17.2-24.1-17.8,24.1h-24.8l30.2-39.5-29.2-38.9h25.5l16.6,22.9,17.1-22.9h24.2l-29.2,38.3,30.3,40.1h-25.8Z"/>
  <path class="st5" d="M131.4-609.1c-2.6-2.3-4-5.6-3.9-9,0-3.4,1.4-6.7,3.9-9,2.8-2.5,6.5-3.8,10.2-3.6,3.7-.2,7.4,1.1,10.2,3.5,2.6,2.2,4,5.4,3.9,8.7,0,3.6-1.3,7-3.9,9.4-2.8,2.5-6.4,3.9-10.2,3.7-3.7.2-7.4-1.1-10.2-3.6ZM130.3-594.5h22.7v78.5h-22.7v-78.5Z"/>
  <path class="st5" d="M200.8-592.8c5.1-2,10.5-3,16-2.9v21c-2.5-.2-4.2-.3-5.1-.3-6.5,0-11.6,1.8-15.3,5.5-3.7,3.6-5.5,9.1-5.5,16.4v37h-22.7v-78.5h21.7v10.4c2.8-3.8,6.6-6.8,11-8.6Z"/>
  <path class="st5" d="M244.1-521.1c-8.2-4.3-15.1-10.8-19.8-18.8-4.9-8.2-7.4-17.6-7.2-27.2-.1-9.6,2.4-19,7.2-27.2,4.8-8,11.6-14.5,19.8-18.8,16.3-8.2,35.4-9,52.3-2.1,7,3,13.1,7.6,18,13.4l-15.2,14c-6.9-8-15.5-12-25.7-12-5.9-.1-11.7,1.3-16.9,4.2-4.9,2.7-8.9,6.7-11.6,11.6-2.8,5.2-4.3,11-4.2,16.9-.1,5.9,1.3,11.7,4.2,16.9,2.7,4.9,6.7,8.9,11.6,11.6,5.2,2.8,11,4.3,16.9,4.2,10.2,0,18.8-4,25.7-12.1l15.2,14c-4.8,5.9-11,10.6-18.1,13.6-7.6,3.2-15.8,4.8-24.1,4.7-9.8.1-19.5-2.2-28.2-6.8Z"/>
  <path class="st5" d="M334.9-520.1c-6.4-3.3-11.7-8.2-15.4-14.4-3.7-6.3-5.7-13.5-5.5-20.9-.1-7.3,1.8-14.5,5.5-20.9,3.7-6.1,9-11.1,15.4-14.4,14-6.9,30.4-6.9,44.4,0,6.3,3.3,11.6,8.3,15.3,14.4,3.7,6.3,5.7,13.5,5.5,20.9.1,7.3-1.8,14.5-5.5,20.9-3.7,6.1-9,11.1-15.3,14.4-14,6.9-30.4,6.9-44.4,0ZM371.5-539.5c3.7-3.9,5.6-9.2,5.6-15.8,0-6.6-1.9-11.9-5.6-15.8-3.7-3.9-9-6.1-14.4-5.9-5.4-.2-10.7,2-14.4,5.9-3.8,3.9-5.7,9.2-5.7,15.8,0,6.6,1.9,11.9,5.7,15.8,3.8,3.9,9,6.1,14.4,5.9,5.4.2,10.6-2,14.4-5.9Z"/>
  <path class="st5" d="M480.5-586.9c6,5.8,9,14.5,9,26v44.9h-22.7v-41.4c0-6.2-1.4-10.9-4.1-13.9-2.7-3.1-6.7-4.6-11.8-4.6-5.7,0-10.3,1.8-13.7,5.3-3.4,3.5-5.1,8.8-5.1,15.8v38.8h-22.7v-78.5h21.7v9.2c3.1-3.4,7-6,11.2-7.7,4.7-1.8,9.7-2.8,14.7-2.7,9.7,0,17.6,2.9,23.5,8.7Z"/>
  <path class="st5" d="M528.8-592.8h20.1v17.5h-19.5v59.2h-22.7v-59.2h-12.1v-17.5h12.1v-3.5c0-8.9,2.6-16,7.9-21.3,5.3-5.3,12.8-7.9,22.4-7.9,3.3,0,6.5.4,9.7,1.1,2.7.6,5.3,1.6,7.7,3.1l-6,16.5c-2.7-1.9-5.9-2.8-9.2-2.8-6.9,0-10.4,3.8-10.4,11.4v3.4Z"/>
  <path class="st17" d="M584.9-536.2c-10.2-7.7-16.4-20.3-16.4-33.8s0-1.3,0-2c.5-6.6,3.7-18.3,16.2-36.5,6-8.7,12.7-16.9,20.1-24.5l1.5-1.5,1.8,2.1c4.4,5,16.1,18.2,25,32.8l-3.5,2.1c-8.1-13.2-18.6-25.4-23.5-31-8.9,9.2-32.2,37.8-33.5,56.8,0,.6,0,1.2,0,1.7,0,12.2,5.5,23.6,14.7,30.5l-2.5,3.3Z"/>
  <path class="st42" d="M641-517.5v-4.1c16.5,0,29.9-14.7,29.9-32.7s-5.2-23.7-29.9-51.9c-5.6,5.9-18.3,21-25.2,35.5l-3.7-1.8c7.8-16.6,23-33.8,27.6-38.2l1.5-1.5,1.8,2c21.3,24.1,32,42.9,32,55.8,0,20.3-15.2,36.8-34,36.8Z"/>
  <path class="st19" d="M611.2-486c-17.7,0-32-15.6-32-34.7s0-1.1,0-1.7c.6-8.1,5.2-18.5,13.7-30.7,5-7.3,10.7-14.2,16.9-20.6l1.5-1.5,1.8,2c20,22.6,30.1,40.3,30.1,52.6,0,19.1-14.4,34.7-32,34.7ZM611.1-569.3c-5.4,5.8-10.3,12-14.8,18.5-7.9,11.5-12.4,21.4-13,28.7,0,.5,0,1,0,1.4,0,16.9,12.5,30.6,27.9,30.6s27.9-13.7,27.9-30.6-4.9-22.1-28-48.6Z"/>
  <path class="st5" d="M572.6-790.8c1.4.8,2.6,2,3.5,3.5.8,1.5,1.3,3.2,1.3,4.9,0,1.7-.4,3.4-1.3,4.9-.8,1.5-2,2.7-3.5,3.5-3,1.7-6.7,1.7-9.8,0-1.4-.8-2.6-2-3.5-3.5-1.7-3-1.7-6.7,0-9.7.8-1.5,2-2.7,3.5-3.5,3-1.7,6.8-1.7,9.8,0h0ZM572-774.9c2.7-1.6,4.3-4.4,4.3-7.5,0-1.5-.4-3-1.1-4.4-.7-1.3-1.8-2.3-3.1-3.1-2.7-1.5-6.1-1.5-8.8,0-1.3.7-2.4,1.8-3.1,3.1-1.5,2.7-1.5,6,0,8.7.7,1.3,1.8,2.4,3.1,3.1,2.7,1.5,6,1.5,8.7,0h0ZM571.9-782.1c-.5.6-1.1,1.1-1.8,1.3l2.6,3.9h-1.5l-2.4-3.7c-.2,0-.4,0-.6,0h-2.8v3.7h-1.4v-11h4.3c1.1,0,2.3.3,3.2,1,.8.7,1.2,1.6,1.2,2.7,0,.8-.2,1.5-.6,2.1h0ZM570.3-782.4c.5-.5.8-1.1.8-1.9,0-.7-.3-1.4-.8-1.8-.7-.5-1.4-.7-2.3-.6h-2.8v5h2.8c.8,0,1.6-.2,2.3-.7h0Z"/>
  <g>
    <path class="st17" d="M800.9-700.2c-10.2-7.7-16.4-20.3-16.4-33.8s0-1.3,0-2c.5-6.6,3.7-18.3,16.2-36.5,6-8.7,12.7-16.9,20.1-24.5l1.5-1.5,1.8,2.1c4.4,5,16.1,18.2,25,32.8l-3.5,2.1c-8.1-13.2-18.6-25.4-23.5-31-8.9,9.2-32.2,37.8-33.5,56.8,0,.6,0,1.2,0,1.7,0,12.2,5.5,23.6,14.7,30.5l-2.5,3.3Z"/>
    <path class="st42" d="M857-681.4v-4.1c16.5,0,29.9-14.7,29.9-32.7s-5.2-23.7-29.9-51.9c-5.6,5.9-18.3,21-25.2,35.5l-3.7-1.8c7.8-16.6,23-33.8,27.6-38.2l1.5-1.5,1.8,2c21.3,24.1,32,42.9,32,55.8,0,20.3-15.2,36.8-34,36.8Z"/>
    <path class="st19" d="M827.2-650c-17.7,0-32-15.6-32-34.7s0-1.1,0-1.7c.6-8.1,5.2-18.5,13.7-30.7,5-7.3,10.7-14.2,16.9-20.6l1.5-1.5,1.8,2c20,22.6,30.1,40.3,30.1,52.6,0,19.1-14.4,34.7-32,34.7ZM827.1-733.3c-5.4,5.8-10.3,12-14.8,18.5-7.9,11.5-12.4,21.4-13,28.7,0,.5,0,1,0,1.4,0,16.9,12.5,30.6,27.9,30.6s27.9-13.7,27.9-30.6-4.9-22.1-28-48.6Z"/>
  </g>
  <text class="st4" transform="translate(572.7 -678)"><tspan x="0" y="0">US</tspan></text>
  <text class="st3" transform="translate(-128.6 -679)"><tspan x="0" y="0">ElixirConf</tspan></text>
  <g>
    <path class="st5" d="M572.6-431.9c1.4.8,2.6,2,3.5,3.5.8,1.5,1.3,3.2,1.3,4.9,0,1.7-.4,3.4-1.3,4.9-.8,1.5-2,2.7-3.5,3.5-3,1.7-6.7,1.7-9.8,0-1.4-.8-2.6-2-3.5-3.5-1.7-3-1.7-6.7,0-9.7.8-1.5,2-2.7,3.5-3.5,3-1.7,6.8-1.7,9.8,0h0ZM572-416.1c2.7-1.6,4.3-4.4,4.3-7.5,0-1.5-.4-3-1.1-4.4-.7-1.3-1.8-2.3-3.1-3.1-2.7-1.5-6.1-1.5-8.8,0-1.3.7-2.4,1.8-3.1,3.1-1.5,2.7-1.5,6,0,8.7.7,1.3,1.8,2.4,3.1,3.1,2.7,1.5,6,1.5,8.7,0h0ZM571.9-423.2c-.5.6-1.1,1.1-1.8,1.3l2.6,3.9h-1.5l-2.4-3.7c-.2,0-.4,0-.6,0h-2.8v3.7h-1.4v-11h4.3c1.1,0,2.3.3,3.2,1,.8.7,1.2,1.6,1.2,2.7,0,.8-.2,1.5-.6,2.1h0ZM570.3-423.5c.5-.5.8-1.1.8-1.9,0-.7-.3-1.4-.8-1.8-.7-.5-1.4-.7-2.3-.6h-2.8v5h2.8c.8,0,1.6-.2,2.3-.7h0Z"/>
    <g>
      <path class="st17" d="M800.9-341.3c-10.2-7.7-16.4-20.3-16.4-33.8s0-1.3,0-2c.5-6.6,3.7-18.3,16.2-36.5,6-8.7,12.7-16.9,20.1-24.5l1.5-1.5,1.8,2.1c4.4,5,16.1,18.2,25,32.8l-3.5,2.1c-8.1-13.2-18.6-25.4-23.5-31-8.9,9.2-32.2,37.8-33.5,56.8,0,.6,0,1.2,0,1.7,0,12.2,5.5,23.6,14.7,30.5l-2.5,3.3Z"/>
      <path class="st42" d="M857-322.6v-4.1c16.5,0,29.9-14.7,29.9-32.7s-5.2-23.7-29.9-51.9c-5.6,5.9-18.3,21-25.2,35.5l-3.7-1.8c7.8-16.6,23-33.8,27.6-38.2l1.5-1.5,1.8,2c21.3,24.1,32,42.9,32,55.8,0,20.3-15.2,36.8-34,36.8Z"/>
      <path class="st19" d="M827.2-291.1c-17.7,0-32-15.6-32-34.7s0-1.1,0-1.7c.6-8.1,5.2-18.5,13.7-30.7,5-7.3,10.7-14.2,16.9-20.6l1.5-1.5,1.8,2c20,22.6,30.1,40.3,30.1,52.6,0,19.1-14.4,34.7-32,34.7ZM827.1-374.4c-5.4,5.8-10.3,12-14.8,18.5-7.9,11.5-12.4,21.4-13,28.7,0,.5,0,1,0,1.4,0,16.9,12.5,30.6,27.9,30.6s27.9-13.7,27.9-30.6-4.9-22.1-28-48.6Z"/>
    </g>
    <g>
      <path class="st5" d="M583.7-363.5v-56.4h23.3v55.6c0,19.2,8.4,27.1,22.5,27.1s22.5-7.9,22.5-27.1v-55.6h23v56.4c0,29.7-17,46.1-45.6,46.1s-45.6-16.4-45.6-46.1Z"/>
      <path class="st5" d="M685-329.1l7.9-17.6c8.5,6.2,21.2,10.5,33.3,10.5s19.4-4.6,19.4-10.8c0-18.9-58.6-5.9-58.6-43.3s13.8-31.4,42.5-31.4,25.6,3,35,8.9l-7.2,17.7c-9.4-5.3-19-7.9-27.9-7.9-13.8,0-19.2,5.2-19.2,11.5,0,18.6,58.6,5.8,58.6,42.8s-14,31.2-42.8,31.2-32.1-4.8-41-11.7Z"/>
    </g>
    <g>
      <path class="st5" d="M-38.6-338.8v18.7h-78v-100.8H-40.5v18.7h-53v21.9h46.8v18.1h-46.8v23.3h54.9Z"/>
      <path class="st5" d="M-26.8-427H-4.3v106.8h-22.5v-106.8Z"/>
      <path class="st5" d="M8.6-420.9c0-7.1,5.6-12.5,14-12.5s14,5.2,14,12.1-5.6,13-14,13-14-5.5-14-12.5ZM11.4-397.6h22.5v77.5H11.4v-77.5Z"/>
      <path class="st5" d="M98.8-320.1l-17-23.8-17.6,23.8h-24.5l29.8-39-28.8-38.4h25.2l16.4,22.6,16.8-22.6h23.9l-28.8,37.9,30,39.6h-25.5Z"/>
      <path class="st5" d="M127.3-420.9c0-7.1,5.6-12.5,14-12.5s14,5.2,14,12.1-5.6,13-14,13-14-5.5-14-12.5ZM130-397.6h22.5v77.5h-22.5v-77.5Z"/>
      <path class="st5" d="M216.3-398.7v20.7c-1.9-.1-3.3-.3-5-.3-12.4,0-20.6,6.8-20.6,21.6v36.6h-22.5v-77.5h21.5v10.2c5.5-7.5,14.7-11.4,26.6-11.4Z"/>
      <path class="st5" d="M217.4-370.5c0-30.4,23.3-52.1,54.7-52.1s32,6.3,41.5,17.9l-15,13.8c-6.8-7.8-15.3-11.8-25.3-11.8-18.9,0-32.3,13.2-32.3,32.3s13.4,32.3,32.3,32.3,18.6-4,25.3-12l15,13.8c-9.5,11.7-24,18-41.6,18-31.2,0-54.6-21.7-54.6-52.1Z"/>
      <path class="st5" d="M314-358.9c0-23.3,18-39.9,42.6-39.9s42.5,16.6,42.5,39.9-17.9,39.9-42.5,39.9-42.6-16.6-42.6-39.9ZM376.4-358.9c0-13.4-8.5-21.5-19.7-21.5s-19.9,8.1-19.9,21.5,8.6,21.5,19.9,21.5,19.7-8.1,19.7-21.5Z"/>
      <path class="st5" d="M488.1-364.5v44.4h-22.5v-40.9c0-12.5-5.8-18.3-15.7-18.3s-18.6,6.6-18.6,20.9v38.3h-22.5v-77.5h21.5v9.1c6-6.6,15.1-10.2,25.6-10.2,18.3,0,32.1,10.7,32.1,34.3Z"/>
      <path class="st5" d="M527.9-395.9h19.9v17.3h-19.3v58.5h-22.5v-58.5h-12v-17.3h12v-3.5c0-17.4,10.7-28.8,30-28.8s13,1.3,17.1,4.2l-5.9,16.3c-2.4-1.7-5.6-2.7-9.1-2.7-6.6,0-10.2,3.6-10.2,11.2v3.3Z"/>
    </g>
  </g>
  <image width="2015" height="317" transform="translate(-117 -996.5) scale(.5)" xlink:href="../../ELIXIR_2025/LOGO-2025/ELIXIR_2025_logo-07.png"/>
  <g>
    <g>
      <g class="st44">
        <path class="st18" d="M727.5,293.9c1.4.8,2.5,1.9,3.4,3.4.8,1.4,1.2,3,1.2,4.7s-.4,3.3-1.2,4.7c-.8,1.5-2,2.6-3.4,3.4-1.4.8-3,1.2-4.7,1.2s-3.3-.4-4.7-1.2c-1.4-.8-2.5-2-3.4-3.4-.8-1.4-1.2-3-1.2-4.7s.4-3.2,1.2-4.7c.8-1.4,2-2.5,3.4-3.4,1.4-.8,3-1.2,4.8-1.2s3.3.4,4.7,1.2ZM726.9,309.2c1.3-.7,2.2-1.7,3-3,.7-1.3,1.1-2.7,1.1-4.3s-.3-3-1.1-4.2c-.7-1.2-1.7-2.2-3-3-1.2-.7-2.7-1.1-4.2-1.1s-3,.4-4.3,1.1c-1.3.7-2.3,1.7-3,3-.7,1.3-1.1,2.7-1.1,4.2s.4,2.9,1.1,4.2c.7,1.3,1.7,2.3,3,3,1.3.7,2.7,1.1,4.2,1.1s2.9-.4,4.2-1.1ZM726.8,302.2c-.4.6-1,1-1.7,1.2l2.5,3.8h-1.4l-2.3-3.6h-3.4v3.5h-1.3v-10.6h4.1c1.3,0,2.4.3,3.1,1,.7.6,1.1,1.5,1.1,2.6s-.2,1.6-.6,2.1ZM725.3,301.9c.5-.4.8-1,.8-1.8s-.3-1.3-.8-1.7c-.5-.4-1.2-.6-2.2-.6h-2.7v4.8h2.7c1,0,1.7-.2,2.2-.7Z"/>
        <g>
          <path class="st18" d="M138.5,384.4v18.3H62.1v-98.6h74.5v18.3h-51.8v21.4h45.8v17.8h-45.8v22.8h53.7Z"/>
          <path class="st18" d="M149.2,298.1h22v104.5h-22v-104.5Z"/>
          <path class="st18" d="M186.8,312.8c-2.5-2.4-3.8-5.3-3.8-8.7s1.3-6.4,3.8-8.7c2.5-2.4,5.8-3.5,9.9-3.5s7.3,1.1,9.9,3.4c2.5,2.2,3.8,5.1,3.8,8.5s-1.3,6.7-3.8,9.1c-2.5,2.4-5.8,3.6-9.9,3.6-4,0-7.3-1.1-9.9-3.5ZM185.7,326.9h22v75.8h-22v-75.8Z"/>
          <path class="st18" d="M270.4,402.7l-16.6-23.3-17.2,23.3h-23.9l29.1-38.2-28.2-37.6h24.7l16.1,22.1,16.5-22.1h23.4l-28.2,37,29.3,38.7h-24.9Z"/>
          <path class="st18" d="M301.2,312.8c-2.5-2.4-3.8-5.3-3.8-8.7s1.3-6.4,3.8-8.7c2.5-2.4,5.8-3.5,9.9-3.5s7.3,1.1,9.9,3.4c2.5,2.2,3.8,5.1,3.8,8.5s-1.3,6.7-3.8,9.1c-2.5,2.4-5.8,3.6-9.9,3.6-4,0-7.3-1.1-9.9-3.5ZM300.1,326.9h22v75.8h-22v-75.8Z"/>
          <path class="st18" d="M368.2,328.5c4.5-1.9,9.6-2.8,15.4-2.8v20.3c-2.5-.2-4.1-.3-4.9-.3-6.3,0-11.2,1.7-14.8,5.3-3.6,3.5-5.4,8.8-5.4,15.9v35.8h-22v-75.8h21v10c2.6-3.7,6.2-6.4,10.6-8.3Z"/>
          <path class="st18" d="M410.1,397.8c-8.1-4.4-14.5-10.4-19.2-18.2-4.7-7.7-6.9-16.5-6.9-26.3s2.3-18.5,6.9-26.3c4.7-7.7,11-13.8,19.2-18.2,8.1-4.4,17.3-6.6,27.4-6.6s16.3,1.5,23.2,4.5c6.9,3,12.7,7.3,17.4,12.9l-14.6,13.5c-6.7-7.7-14.9-11.5-24.8-11.5s-11.5,1.3-16.4,4c-4.8,2.7-8.5,6.4-11.2,11.2-2.7,4.8-4,10.3-4,16.4s1.3,11.5,4,16.4c2.7,4.8,6.4,8.5,11.2,11.2,4.8,2.7,10.3,4,16.4,4,9.9,0,18.1-3.9,24.8-11.7l14.6,13.5c-4.7,5.7-10.5,10.1-17.5,13.1-6.9,3-14.7,4.5-23.3,4.5s-19.1-2.2-27.2-6.6Z"/>
          <path class="st18" d="M497.8,398.8c-6.3-3.3-11.3-8-14.9-13.9-3.6-5.9-5.4-12.6-5.4-20.2s1.8-14.2,5.4-20.2c3.6-5.9,8.5-10.5,14.9-13.9,6.3-3.3,13.5-5,21.5-5s15.1,1.7,21.4,5c6.3,3.4,11.2,8,14.8,13.9,3.6,5.9,5.4,12.6,5.4,20.2s-1.8,14.2-5.4,20.2c-3.6,5.9-8.5,10.5-14.8,13.9-6.3,3.4-13.5,5-21.4,5s-15.1-1.7-21.5-5ZM533.2,380c3.6-3.8,5.4-8.9,5.4-15.3s-1.8-11.5-5.4-15.3c-3.6-3.8-8.2-5.7-13.9-5.7s-10.3,1.9-14,5.7c-3.6,3.8-5.5,8.9-5.5,15.3s1.9,11.5,5.5,15.3c3.6,3.8,8.3,5.7,14,5.7s10.3-1.9,13.9-5.7Z"/>
          <path class="st18" d="M638.4,334.2c5.8,5.7,8.7,14,8.7,25.1v43.4h-22v-40c0-6-1.3-10.5-3.9-13.4-2.6-3-6.4-4.4-11.4-4.4s-10,1.7-13.2,5.2c-3.3,3.4-4.9,8.5-4.9,15.3v37.5h-22v-75.9h21v8.9c2.9-3.2,6.5-5.7,10.9-7.4,4.3-1.7,9.1-2.6,14.2-2.6,9.2,0,16.9,2.9,22.6,8.5Z"/>
          <path class="st18" d="M685.1,328.5h19.4v16.9h-18.9v57.2h-22v-57.2h-11.7v-16.9h11.7v-3.4c0-8.6,2.6-15.5,7.7-20.6,5.1-5.1,12.3-7.6,21.6-7.6s6.4.3,9.4,1.1c3,.7,5.4,1.7,7.4,3l-5.8,15.9c-2.5-1.8-5.5-2.7-8.9-2.7-6.7,0-10,3.6-10,11v3.3h0Z"/>
        </g>
      </g>
      <g>
        <path class="st43" d="M751.4,389.9c-8.5-6.4-13.6-16.9-13.6-28.1s0-1.1,0-1.7c.4-5.5,3.1-15.2,13.5-30.4,6.6-9.5,13.7-17.5,16.7-20.4l1.3-1.2,1.5,1.7c3.6,4.1,13.4,15.2,20.8,27.3l-2.9,1.8c-6.7-11-15.5-21.2-19.6-25.8-7.4,7.6-26.8,31.4-27.9,47.3,0,.5,0,1,0,1.5,0,10.1,4.6,19.6,12.3,25.4l-2,2.7Z"/>
        <path class="st20" d="M798.1,405.5v-3.4c13.7,0,24.9-12.2,24.9-27.2s-4.4-19.7-24.9-43.2c-4.7,4.9-15.2,17.5-21,29.6l-3.1-1.5c6.6-13.8,19.1-28.2,23-31.8l1.3-1.2,1.5,1.7c17.7,20.1,26.7,35.7,26.7,46.5,0,16.9-12.7,30.6-28.4,30.6Z"/>
        <path class="st16" d="M773.3,431.7c-14.7,0-26.7-12.9-26.7-28.9s0-1,0-1.5c.5-6.8,4.3-15.4,11.4-25.6,5.5-8,11.5-14.7,14.1-17.1l1.3-1.2,1.5,1.7c16.6,18.8,25.1,33.6,25.1,43.8,0,16-11.9,28.9-26.7,28.9ZM773.2,362.3c-2.9,3-7.8,8.7-12.3,15.4-6.6,9.6-10.4,17.9-10.8,23.9,0,.4,0,.8,0,1.2,0,14.1,10.4,25.5,23.3,25.5s23.3-11.4,23.3-25.5c0-6.3-4.1-18.4-23.4-40.5Z"/>
      </g>
    </g>
    <g>
      <g>
        <g>
          <path class="st15" d="M366.8,481.3c0,0,0-.2-.1-.1-1.3,1-5.9,4-10.8,4s-5.2-1.6-7.5-1.6-2.6.6-3,.8c0,0,0,.1,0,.1.8,0,3.4.4,3.4,1.7s-3.4,2.2-5.8,2.2-6.7.6-9,3.8c0,0,0,.2.1.1.7-.3,3-1.2,6.2-1.2s5.5.8,9.1.8c3.6,0,11.6-2.2,17.4-10.6Z"/>
          <path class="st15" d="M341,492.8c-3.8,0-6.4.5-8.2,2.4-2,2-1.6,3-3.6,4.1,0,0,0,.2,0,.2.9,0,3.5-.3,5.7-2.6,0,0,2.5-3.3,6.3-4,0,0,.1,0-.1,0Z"/>
          <path class="st15" d="M332.6,483.5c-5.8-1.3-7.7-9.9-16-9.9s-5.2,1.2-5.7,1.7c0,0,0,.1,0,0,.4-.2,1.3-.4,2.7-.4,5,0,3.9,8.6,18.8,8.7,0,0,.1-.1,0-.1Z"/>
          <path class="st15" d="M315.2,478.4c.1,0,.1-.1,0-.2-.6-.3-2.1-1.2-3.8-1.2-5,0-5,4.5-9,4.7-.1,0-.1.1,0,.2.6.3,1.8.9,3.5.9,4.7,0,4.1-4.2,9.3-4.4Z"/>
          <path class="st15" d="M340.3,474.4c-.7.1-1.8.3-3.5.3-4.3,0-6.8-5.2-14.8-5.2s-5.9,1.7-6.6,2.2c0,0,0,.1,0,.1,1-.2,2-.5,4.9-.5,4.9,0,5,4.3,15,4.3s4.2-.8,5-1.3c0,0,0-.1,0,0Z"/>
          <path class="st15" d="M345.1,456.9c0,0,.2,0,.1.1-1.2,1.7-6.2,7.8-16.5,7.8s-6.2-1.7-9.5-1.7-5.2,2.6-5.4,4.5c0,0-.1,0-.1,0,0-2.2,1-8.6,8.1-8.6s6.1,2.1,11.2,2.1c6.8,0,10.9-3.2,12.2-4.3Z"/>
          <path class="st15" d="M328,477.2c1,1.1,5.4,5.7,12.7,5.7s11.7-13.1,17.8-13.1,4.1,2.9,4.1,3.7c0,2.4-3,8.5-9.4,9.1,0,0-.1.1,0,.1.9.1,2.4.2,3.5.2,1.6,0,16.5-2,16.5-19.4s8.4-14.9,10-14.6c0,0,.1,0,0-.1-1.1-.9-6.4-4.6-15.9-4.6-18.2,0-19.1,21.9-36.1,22.1,0,0-.1.1,0,.1.8.4,3.8,1.9,5.8,1.9,6.8,0,7.1-5.1,11.4-5.1s3.3,1.5,3.3,3.2-3.2,11.7-17.8,11.7-5.3-.7-5.9-1c0,0-.1,0,0,.1ZM369.3,446.8c0,0,0-.1,0,0,1.6.1,3.1.3,4.5.6,0,0,0,0,0,.1-.2.3-1,1.2-2.5,1.2s-2-1.5-2.1-1.8Z"/>
          <path class="st15" d="M349.5,451.4c0,0,0,0,0,.1-.7.8-6.6,7.1-14.6,7.1s-4-.7-4.7-1.1c0,0-.1-.2,0-.1.5.1,1.5.3,2.6.3,5.8,0,6.2-6.5,16.6-6.3Z"/>
        </g>
        <path class="st15" d="M316.9,483.8h-.6v-2h-.7v-.5h1.8v.5h-.6v2ZM313.3,483.8h-.5v-2.5h.7l.6,1.6.6-1.6h.6v2.5c0,0-.4,0-.4,0v-1.4c0,0-.4,1.1-.4,1.1h-.5l-.4-1.1v1.4Z"/>
      </g>
      <g class="st44">
        <path class="st14" d="M253.2,453s-6,6.6-10.9,11c-4.9,4.4-6.1,8.9-6,11.5.4,15.9,11.5,21.9,22.6,21.6,10.6-.3,14.3-12.4,12.9-23.9-1.5-11.5-1.3-27.9-12.4-38.3,0,0,.3,11.3-6.2,18.2Z"/>
        <path class="st38" d="M249.3,453.3c-5.5,6.2-13.1,15.5-13.1,22.1s12.4,9.6,21.6,9.6,20.1-3.1,20.1-8.2c0-10.9-.9-11.1-5.7-23.9-1.2-3.2,4.1,24.2-14.2,23.4-18.3-.8-18.4-11.1-7.3-19.6,4.4-3.4,3.8-5.2,3.8-5.2"/>
        <path class="st39" d="M247.9,454.7s.8,5.9-.8,13.9c-1.6,8-4.3,25.7,13.3,28.6,8.2-.2,10.6-11.4,10.6-11.4,0,0,5.2-44.7-15.5-53.2-.3,3.3-.6,9.8-3,15.5,0,0-1.2,3-4.6,6.7Z"/>
        <path class="st37" d="M253.2,446s1.8-3.9,2.4-13.4c0,0,4.9.8,10.1,8.7,3.7,5.7,8.7,15.2,11.1,23.6,3.1,11.2.2,21.5-5.6,26.5-6.9,6-14,6.3-18,3.2-3.6-2.9-6-5.8-6.7-11l1.3.3s.8,3.6,3.5,7c2,2.5,7.4,6.1,10.8,4.5,5-2.2,4.9-7.2,3.3-11.2-1.8-4.4-7.5-8-8.6-14.5-1.2-7.1,1-8.9.4-15.3-.5-5.4-3.9-8.4-3.9-8.4Z"/>
        <path class="st36" d="M263.1,473.1s.2-6.4,1-11.2c.8-4.5,2.6-10.8-.5-16.1-3.1-5.3-8.4-8.4-8.4-8.4,0,0-.6,3.6-1.5,7.7,0,0,5,5,5.5,12.3.3,3.5,3.9,15.7,3.9,15.7Z"/>
        <g class="st41">
          <path class="st2" d="M262.6,472.8s-.9-8.9-2-13.8c-1.4-6.1-2.7-11.4-6.9-13.8"/>
        </g>
        <path class="st35" d="M259.4,499.4s-3-1.1,1.7-1.9c4.7-.8,3.1-.6,3.1-.6l1.5-.2s3.4-3.2.5-10.2c-5.2,1.1-11.5,1.5-19.2-.3,0,2.3,1.7,5.3,2.7,6.6,1.7,2.2,2.7,3.3,4.7,4.4,2,1.2,3.5,1.7,5.1,2.1Z"/>
        <path class="st1" d="M239.3,487.3s8,2.8,20.1-13.7c12.1-16.5,9-23.1,8.7-24,0,0,3.3,11.4,3.3,16.2s-18.1,34.4-29,25.4c-.8-.8-2.5-3-3.1-3.9Z"/>
      </g>
      <g>
        <path class="st15" d="M427.8,447.7h-10.4c-1.5,0-2.6,1.2-2.6,2.6v38.9c0,1.5,1.2,2.6,2.6,2.6h8.7c1.5,0,2.6-1.2,2.6-2.6v-1.6c0-1.5-1.2-2.6-2.6-2.6h-1.9c-1.5,0-2.6-1.2-2.6-2.6v-25.4c0-1.5,1.2-2.6,2.6-2.6h1.9c.6,0,1.1.2,1.5.5l24,17.4c1.7,1.2,4.1,0,4.1-2.1v-1.1c0-.8-.4-1.6-1.1-2.1l-25.2-18.8c-.5-.4-1.1-.6-1.6-.6Z"/>
        <path class="st15" d="M456.1,491.8h10.4c1.5,0,2.6-1.2,2.6-2.6v-38.9c0-1.5-1.2-2.6-2.6-2.6h-8.7c-1.5,0-2.6,1.2-2.6,2.6v1.6c0,1.5,1.2,2.6,2.6,2.6h1.9c1.5,0,2.6,1.2,2.6,2.6v25.4c0,1.5-1.2,2.6-2.6,2.6h-1.9c-.6,0-1.1-.2-1.5-.5l-24-17.4c-1.7-1.2-4.1,0-4.1,2.1v1.1c0,.8.4,1.6,1.1,2.1l25.2,18.8c.5.4,1,.6,1.6.6Z"/>
      </g>
      <path class="st15" d="M577.5,454.9c0-.2-.2-.2-.3-.1-1.2.8-2,1.2-3,1.9v.2-.2s-4.8,2.5-10.5,4.5c-1.5.6-2.9,1-4.1,1.5.9-1.3,1.5-2.7,1.9-4.3.7-3.1.2-6.3-1.5-8.8-1.6-2.6-4.4-4.4-7.6-5.2-1.3-.3-2.7-.3-4-.2-4.9.7-8.9,4.4-10,9.2-.7,3.3,0,6.6,1.8,9.1-6.1,1.7-10,5.8-10.4,8.2h0c-.6.4-1.1.7-1.7,1.1-2.7,1.7-5.4,3.4-6.5,4,0,0-.1,0-.2,0-1.9-2.2-2.7-5.3-2.2-8.4,1-5.7,6.4-9.6,12.2-8.6.9.2,1.7.4,2.5.8.2-.3,4.4-6.2.1-11.4-1.5-1.8-3.7-3.1-6.1-3.5h-.1c-9.9-1.6-19.2,5-20.8,14.9-1.3,8,2.7,15.6,9.6,19.1-3.5,1.9-6.7,3.5-10.5,5.7h0c-1.6,1-2.8,2.4-3.6,3.5-1.2,1.7-.9,4,.8,5.2h0c.5.4,1.1.2,1.4-.3.2-.4,1.7-4.1,2.5-5.7.2.4.4.8.6,1.1.1.3.4.4.7.3,5.7-1.8,9.9-2.2,12.9-2.2h0c-.3.4-.8,1.5-1.2,2.9-.2.8-.3,1.3-.3,1.8h0c0,1,.4,1.3,1.1,1.3h0c.4,0,.8-1.5,1.1-2.5.1-.3.2-.6.2-1h0c.8,1.6,2.2,3.8,4.5,4.5,4.5,1.4,14-10.9,14-10.9,11.3-4,15-6.9,18.2-11.5l.3-.4c.1,0,1.2-.5,1.3-.6,6.1-2.8,12.6-7.6,13.6-8.3h0s1.9-1.3,3.1-3.1c.8-1.3.3-2.9.1-3.5ZM544.2,475.8l-.3-3.7c-2.3.7-5.2.5-6.9-1.9-.2-.2,0-.6.2-.6h0c1.6,2.5,4.5,2.4,6.8,1.8h0c1.6-.4,2.7-1.1,3.7-1.7,0,0,.2,0,.2,0,1,1.7.5,5-3.8,6.2ZM555.9,465.2c-1,.7-2.1,1.1-3.2,1.5-3.8,1.2-6.2-.8-6.7-1.5,0,0,0-.1,0-.1.7.3,3.3,1.2,5.5.5-.7-2.2.4-6.5,6.3-7.8,0,0,.6-.1.8-.2h0s.5,0,.8-.3c.1,0,.2-.2.2-.3.1,0,.1-.4.1-.6h0c0-.2,0-.4-.3-.7-.3-.3-1.3-.6-1.5-.6-7.5-2.6-11.2-2.1-11.4-2.1h0c0-.2-.3-.6-.3-.6-.7-1.7-.4-3-.4-3.1-.3-.3-.9-.6-1.3-.2-1,.9-1.5,3.3-1.5,3.2-.1-.7-.2-1.7.2-3.4.1-.6-.1-1.2-.6-1.3,1.6-1.4,3.6-2.4,5.8-2.6,1.2-.2,2.5-.1,3.8.2,3,.7,5.6,2.4,7.1,4.8,1.5,2.4,2,5.4,1.4,8.3-.7,2.9-2.4,5.3-4.8,6.9Z"/>
      <g>
        <path class="st0" d="M253.2,453s-6,6.6-10.9,11c-4.9,4.4-6.1,8.9-6,11.5.4,15.9,11.5,21.9,22.6,21.6,10.6-.3,14.3-12.4,12.9-23.9-1.5-11.5-1.3-27.9-12.4-38.3,0,0,.3,11.3-6.2,18.2Z"/>
        <path class="st40" d="M249.3,453.3c-5.5,6.2-13.1,15.5-13.1,22.1s12.4,9.6,21.6,9.6,20.1-3.1,20.1-8.2c0-10.9-.9-11.1-5.7-23.9-1.2-3.2,4.1,24.2-14.2,23.4-18.3-.8-18.4-11.1-7.3-19.6,4.4-3.4,3.8-5.2,3.8-5.2"/>
        <path class="st30" d="M247.9,454.7s.8,5.9-.8,13.9c-1.6,8-4.3,25.7,13.3,28.6,8.2-.2,10.6-11.4,10.6-11.4,0,0,5.2-44.7-15.5-53.2-.3,3.3-.6,9.8-3,15.5,0,0-1.2,3-4.6,6.7Z"/>
        <path class="st27" d="M253.2,446s1.8-3.9,2.4-13.4c0,0,4.9.8,10.1,8.7,3.7,5.7,8.7,15.2,11.1,23.6,3.1,11.2.2,21.5-5.6,26.5-6.9,6-14,6.3-18,3.2-3.6-2.9-6-5.8-6.7-11l1.3.3s.8,3.6,3.5,7c2,2.5,7.4,6.1,10.8,4.5,5-2.2,4.9-7.2,3.3-11.2-1.8-4.4-7.5-8-8.6-14.5-1.2-7.1,1-8.9.4-15.3-.5-5.4-3.9-8.4-3.9-8.4Z"/>
        <path class="st29" d="M263.1,473.1s.2-6.4,1-11.2c.8-4.5,2.6-10.8-.5-16.1-3.1-5.3-8.4-8.4-8.4-8.4,0,0-.6,3.6-1.5,7.7,0,0,5,5,5.5,12.3.3,3.5,3.9,15.7,3.9,15.7Z"/>
        <g class="st41">
          <path class="st8" d="M262.6,472.8s-.9-8.9-2-13.8c-1.4-6.1-2.7-11.4-6.9-13.8"/>
        </g>
        <path class="st33" d="M259.4,499.4s-3-1.1,1.7-1.9c4.7-.8,3.1-.6,3.1-.6l1.5-.2s3.4-3.2.5-10.2c-5.2,1.1-11.5,1.5-19.2-.3,0,2.3,1.7,5.3,2.7,6.6,1.7,2.2,2.7,3.3,4.7,4.4,2,1.2,3.5,1.7,5.1,2.1Z"/>
        <path class="st9" d="M239.3,487.3s8,2.8,20.1-13.7c12.1-16.5,9-23.1,8.7-24,0,0,3.3,11.4,3.3,16.2s-18.1,34.4-29,25.4c-.8-.8-2.5-3-3.1-3.9Z"/>
      </g>
    </g>
    <path class="st18" d="M556.7,325.2c0,3.2-2.5,5.8-5.7,5.8h0c-3.2,0-5.7-2.6-5.7-5.7s2.6-5.7,5.7-5.7c3.1,0,5.7,2.5,5.7,5.7ZM555.8,325.2c0-2.6-2.1-4.7-4.7-4.7s-4.7,2.1-4.7,4.7,2.1,4.7,4.6,4.7c2.6,0,4.7-2,4.8-4.6h0ZM552.2,326l1.3,1.9h-1.1l-1.1-1.7h-1.6v1.7h-1v-5.7h2.3c1.5,0,2.3.7,2.3,2,0,.8-.4,1.6-1.2,1.8ZM551.1,325.4c.9,0,1.4-.4,1.4-1.2s-.5-1.2-1.4-1.2h-1.3v2.4h1.3Z"/>
    <path class="st18" d="M21.2,341.6v16.3h39.1v16.4H21.2v16.5h44.7v16.4H.4v-82h64.2v16.4H21.2Z"/>
    <path class="st18" d="M74.9,407.2v-86.9h20.3v86.9h-20.3Z"/>
    <path class="st18" d="M127.8,325.9c0,6.3-4.4,10.8-10.6,10.8s-10.6-4.4-10.6-10.8,4.4-10.6,10.6-10.6,10.6,4.5,10.6,10.6ZM107,407.2v-63.2h20.2v63.2h-20.2Z"/>
    <path class="st18" d="M177.2,344.1h22.1l-20,30.7,21.4,32.4h-23.3l-11.5-19.8-12.9,19.8h-22.2l21.6-32.3-20.1-30.8h23.2l10.5,18.2,11.2-18.2Z"/>
    <path class="st18" d="M225.4,325.9c0,6.3-4.4,10.8-10.6,10.8s-10.6-4.4-10.6-10.8,4.4-10.6,10.6-10.6,10.6,4.5,10.6,10.6ZM204.5,407.2v-63.2h20.2v63.2h-20.2Z"/>
    <path class="st18" d="M256.3,354.8c4.3-7.4,11.5-11.5,20.5-11.6v18.3c-11.7-1.1-19.4,4.4-20.5,13.3v32.4h-20.3v-63.2h20.3v10.7Z"/>
    <path class="st18" d="M352.7,338.4l-12,14.3c-5.4-6.6-13.3-10.7-20.6-10.7-13,0-22.9,10.3-22.9,23.8s9.9,24.2,22.9,24.2,14.9-3.8,20.6-9.6l12.2,12.9c-8.8,9-21.8,15-33.8,15-24.7,0-43.1-18.2-43.1-42.1s18.9-41.5,43.8-41.5c12.2,0,24.8,5.3,33,13.8Z"/>
    <path class="st18" d="M419.6,375.6c0,19.4-13.8,32.3-34.4,32.3s-34.6-12.9-34.6-32.3,13.8-32.2,34.6-32.2,34.4,12.7,34.4,32.2ZM371,375.8c0,9.9,5.7,16.4,14.2,16.4s14.1-6.6,14.1-16.4-5.7-16.4-14.1-16.4-14.2,6.7-14.2,16.4h0Z"/>
    <path class="st18" d="M490,367.4v39.8h-20.1v-34.2c0-7.4-4.3-11.9-11.2-11.9s-12,5.3-12.9,12.8v33.4h-20.3v-63.2h20.3v10.3c4.4-7.4,11.7-11.2,21.1-11.3,14,0,23.1,9.5,23.1,24.3Z"/>
    <path class="st18" d="M523.2,342.3v4.6h14.3v13.3h-14.3v47h-20v-47h-8.6v-13.3h8.6v-5.8c0-14,10.5-21.7,24.2-21.7s12.9,1.6,17.7,4.4l-7.2,14.2c-2.1-1.6-4.7-2.5-7.4-2.6-4.1-.1-7.3,2.2-7.3,6.9Z"/>
    <path class="st18" d="M590.9,341.6v16.3h39.1v16.4h-39.1v16.5h44.6v16.4h-65.5v-82h64.2v16.4h-43.3Z"/>
    <path class="st18" d="M717.8,372.8c0,21.7-14.4,35.4-37.4,35.4s-37.8-13.7-37.8-35.4v-47.6h20.8v47.6c0,11.2,7.2,17.9,17.1,17.9s16.5-6.8,16.5-17.9v-47.6h20.7v47.6Z"/>
  </g>
  <g>
    <g>
      <path class="st18" d="M565.3,6.3c1.2.7,2.2,1.6,2.8,2.8.7,1.2,1,2.6,1,4,0,1.4-.3,2.8-1.1,4-.7,1.2-1.7,2.2-2.9,2.9-2.5,1.4-5.5,1.4-8,0-1.2-.7-2.2-1.7-2.8-2.9-1.4-2.5-1.4-5.5,0-8,.7-1.2,1.7-2.2,2.9-2.9,2.5-1.4,5.5-1.4,8,0h0ZM564.9,19.3c2.2-1.3,3.5-3.6,3.5-6.2,0-1.3-.3-2.5-.9-3.6-.6-1.1-1.5-1.9-2.5-2.5-2.2-1.2-5-1.2-7.2,0-1.1.6-1.9,1.5-2.6,2.6-1.2,2.2-1.2,4.9,0,7.1.6,1.1,1.5,2,2.5,2.6,2.2,1.3,4.9,1.3,7.2,0h0ZM564.8,13.4c-.4.5-.9.9-1.5,1.1l2.1,3.2h-1.2l-1.9-3c-.2,0-.3,0-.5,0h-2.3v3h-1.2v-9h3.5c.9,0,1.9.2,2.6.8.6.5,1,1.4,1,2.2,0,.6-.2,1.2-.5,1.8h0ZM563.5,13.1c.4-.4.7-.9.7-1.5,0-.6-.2-1.1-.7-1.5-.5-.4-1.2-.6-1.8-.5h-2.3v4.1h2.3c.7,0,1.3-.1,1.8-.5h0Z"/>
      <g>
        <path class="st17" d="M752.6,80.6c-8.4-6.3-13.4-16.6-13.4-27.7s0-1.1,0-1.7c.4-5.4,3-15,13.3-29.9,4.9-7.2,10.4-13.9,16.5-20.1l1.3-1.2,1.5,1.7c3.6,4.1,13.2,15,20.5,26.9l-2.9,1.8c-6.6-10.8-15.3-20.9-19.3-25.5-7.3,7.5-26.4,31-27.5,46.6,0,.5,0,1,0,1.4,0,10,4.5,19.3,12.1,25l-2,2.7Z"/>
        <path class="st42" d="M798.6,95.9v-3.4c13.5,0,24.5-12,24.5-26.8s-4.3-19.4-24.6-42.6c-4.6,4.8-15,17.2-20.7,29.1l-3-1.4c6.4-13.6,18.8-27.7,22.6-31.4l1.3-1.2,1.5,1.7c17.4,19.7,26.3,35.1,26.3,45.8,0,16.6-12.5,30.2-27.9,30.2Z"/>
        <path class="st19" d="M774.1,121.7c-14.5,0-26.3-12.8-26.3-28.5s0-.9,0-1.4c.5-6.7,4.3-15.1,11.2-25.2,4.1-6,8.8-11.7,13.9-16.9l1.3-1.2,1.4,1.6c16.4,18.6,24.7,33.1,24.7,43.1,0,15.7-11.8,28.5-26.3,28.5ZM774.1,53.4c-4.4,4.7-8.5,9.8-12.2,15.1-6.5,9.4-10.2,17.6-10.6,23.5,0,.4,0,.8,0,1.2,0,13.8,10.3,25.1,22.9,25.1s22.9-11.3,22.9-25.1-4-18.2-23-39.9Z"/>
      </g>
      <g>
        <path class="st18" d="M574.5,62.4V16.1h19.1v45.6c0,15.7,6.9,22.2,18.4,22.2s18.4-6.5,18.4-22.2V16.1h18.9v46.3c0,24.3-13.9,37.8-37.4,37.8s-37.4-13.5-37.4-37.8Z"/>
        <path class="st18" d="M657.5,90.6l6.5-14.4c7,5.1,17.4,8.6,27.3,8.6s15.9-3.8,15.9-8.9c0-15.5-48.1-4.8-48.1-35.6s11.3-25.7,34.8-25.7,21,2.5,28.7,7.3l-5.9,14.5c-7.7-4.4-15.6-6.5-22.9-6.5-11.3,0-15.7,4.3-15.7,9.4,0,15.2,48.1,4.7,48.1,35.1s-11.5,25.6-35.1,25.6-26.3-3.9-33.7-9.6Z"/>
      </g>
      <g>
        <path class="st18" d="M64,82.6v15.4H0V15.3h62.5v15.4H19v18h38.4v14.9H19v19.1h45Z"/>
        <path class="st18" d="M73.7,10.3h18.4v87.6h-18.4V10.3Z"/>
        <path class="st18" d="M102.8,15.3c0-5.8,4.6-10.3,11.5-10.3s11.5,4.3,11.5,9.9-4.6,10.6-11.5,10.6-11.5-4.5-11.5-10.3ZM105,34.4h18.4v63.5h-18.4v-63.5Z"/>
        <path class="st18" d="M176.7,97.9l-13.9-19.5-14.4,19.5h-20.1l24.4-32-23.6-31.5h20.7l13.5,18.5,13.8-18.5h19.6l-23.6,31.1,24.6,32.5h-20.9Z"/>
        <path class="st18" d="M200.1,15.3c0-5.8,4.6-10.3,11.5-10.3s11.5,4.3,11.5,9.9-4.6,10.6-11.5,10.6-11.5-4.5-11.5-10.3ZM202.3,34.4h18.4v63.5h-18.4v-63.5Z"/>
        <path class="st18" d="M273.1,33.4v17c-1.5-.1-2.7-.2-4.1-.2-10.2,0-16.9,5.6-16.9,17.7v30h-18.4v-63.5h17.6v8.4c4.5-6.1,12-9.3,21.8-9.3Z"/>
        <path class="st18" d="M274,56.6c0-24.9,19.1-42.8,44.9-42.8s26.2,5.2,34,14.6l-12.3,11.3c-5.6-6.4-12.5-9.7-20.8-9.7-15.5,0-26.5,10.9-26.5,26.5s11,26.5,26.5,26.5,15.2-3.3,20.8-9.8l12.3,11.3c-7.8,9.6-19.7,14.8-34.1,14.8-25.6,0-44.8-17.8-44.8-42.8Z"/>
        <path class="st18" d="M353.3,66.2c0-19.1,14.8-32.7,35-32.7s34.8,13.6,34.8,32.7-14.6,32.7-34.8,32.7-35-13.6-35-32.7ZM404.4,66.2c0-11-7-17.6-16.2-17.6s-16.3,6.6-16.3,17.6,7.1,17.6,16.3,17.6,16.2-6.6,16.2-17.6Z"/>
        <path class="st18" d="M496,61.6v36.4h-18.4v-33.5c0-10.3-4.7-15-12.9-15s-15.2,5.4-15.2,17.1v31.4h-18.4v-63.5h17.6v7.4c5-5.4,12.4-8.4,21-8.4,15,0,26.3,8.7,26.3,28.1Z"/>
        <path class="st18" d="M528.6,35.8h16.3v14.2h-15.8v48h-18.4v-48h-9.8v-14.2h9.8v-2.8c0-14.3,8.7-23.6,24.6-23.6s10.6,1.1,14.1,3.4l-4.8,13.3c-2-1.4-4.6-2.2-7.4-2.2-5.4,0-8.4,3-8.4,9.2v2.7Z"/>
      </g>
    </g>
    <g>
      <g>
        <g>
          <path class="st15" d="M366.8,175.3c0,0,0-.2-.1-.1-1.3,1-5.9,4-10.8,4s-5.2-1.6-7.5-1.6-2.6.6-3,.8c0,0,0,.1,0,.1.8,0,3.4.4,3.4,1.7s-3.4,2.2-5.8,2.2-6.7.6-9,3.8c0,0,0,.2.1.1.7-.3,3-1.2,6.2-1.2s5.5.8,9.1.8c3.6,0,11.6-2.2,17.4-10.6Z"/>
          <path class="st15" d="M341,186.8c-3.8,0-6.4.5-8.2,2.4-2,2-1.6,3-3.6,4.1,0,0,0,.2,0,.2.9,0,3.5-.3,5.7-2.6,0,0,2.5-3.3,6.3-4,0,0,.1,0-.1,0Z"/>
          <path class="st15" d="M332.6,177.5c-5.8-1.3-7.7-9.9-16-9.9s-5.2,1.2-5.7,1.7c0,0,0,.1,0,0,.4-.2,1.3-.4,2.7-.4,5,0,3.9,8.6,18.8,8.7,0,0,.1-.1,0-.1Z"/>
          <path class="st15" d="M315.2,172.4c.1,0,.1-.1,0-.2-.6-.3-2.1-1.2-3.8-1.2-5,0-5,4.5-9,4.7-.1,0-.1.1,0,.2.6.3,1.8.9,3.5.9,4.7,0,4.1-4.2,9.3-4.4Z"/>
          <path class="st15" d="M340.3,168.4c-.7.1-1.8.3-3.5.3-4.3,0-6.8-5.2-14.8-5.2s-5.9,1.7-6.6,2.2c0,0,0,.1,0,.1,1-.2,2-.5,4.9-.5,4.9,0,5,4.3,15,4.3s4.2-.8,5-1.3c0,0,0-.1,0,0Z"/>
          <path class="st15" d="M345.1,150.9c0,0,.2,0,.1.1-1.2,1.7-6.2,7.8-16.5,7.8s-6.2-1.7-9.5-1.7-5.2,2.6-5.4,4.5c0,0-.1,0-.1,0,0-2.2,1-8.6,8.1-8.6s6.1,2.1,11.2,2.1c6.8,0,10.9-3.2,12.2-4.3Z"/>
          <path class="st15" d="M328,171.2c1,1.1,5.4,5.7,12.7,5.7s11.7-13.1,17.8-13.1,4.1,2.9,4.1,3.7c0,2.4-3,8.5-9.4,9.1,0,0-.1.1,0,.1.9.1,2.4.2,3.5.2,1.6,0,16.5-2,16.5-19.4s8.4-14.9,10-14.6c0,0,.1,0,0-.1-1.1-.9-6.4-4.6-15.9-4.6-18.2,0-19.1,21.9-36.1,22.1,0,0-.1.1,0,.1.8.4,3.8,1.9,5.8,1.9,6.8,0,7.1-5.1,11.4-5.1s3.3,1.5,3.3,3.2-3.2,11.7-17.8,11.7-5.3-.7-5.9-1c0,0-.1,0,0,.1ZM369.3,140.8c0,0,0-.1,0,0,1.6.1,3.1.3,4.5.6,0,0,0,0,0,.1-.2.3-1,1.2-2.5,1.2s-2-1.5-2.1-1.8Z"/>
          <path class="st15" d="M349.5,145.4c0,0,0,0,0,.1-.7.8-6.6,7.1-14.6,7.1s-4-.7-4.7-1.1c0,0-.1-.2,0-.1.5.1,1.5.3,2.6.3,5.8,0,6.2-6.5,16.6-6.3Z"/>
        </g>
        <path class="st15" d="M316.9,177.8h-.6v-2h-.7v-.5h1.8v.5h-.6v2ZM313.3,177.8h-.5v-2.5h.7l.6,1.6.6-1.6h.6v2.5c0,0-.4,0-.4,0v-1.4c0,0-.4,1.1-.4,1.1h-.5l-.4-1.1v1.4Z"/>
      </g>
      <g class="st44">
        <path class="st10" d="M253.2,147s-6,6.6-10.9,11c-4.9,4.4-6.1,8.9-6,11.5.4,15.9,11.5,21.9,22.6,21.6,10.6-.3,14.3-12.4,12.9-23.9-1.5-11.5-1.3-27.9-12.4-38.3,0,0,.3,11.3-6.2,18.2Z"/>
        <path class="st26" d="M249.3,147.3c-5.5,6.2-13.1,15.5-13.1,22.1s12.4,9.6,21.6,9.6,20.1-3.1,20.1-8.2c0-10.9-.9-11.1-5.7-23.9-1.2-3.2,4.1,24.2-14.2,23.4-18.3-.8-18.4-11.1-7.3-19.6,4.4-3.4,3.8-5.2,3.8-5.2"/>
        <path class="st28" d="M247.9,148.7s.8,5.9-.8,13.9c-1.6,8-4.3,25.7,13.3,28.6,8.2-.2,10.6-11.4,10.6-11.4,0,0,5.2-44.7-15.5-53.2-.3,3.3-.6,9.8-3,15.5,0,0-1.2,3-4.6,6.7Z"/>
        <path class="st25" d="M253.2,140s1.8-3.9,2.4-13.4c0,0,4.9.8,10.1,8.7,3.7,5.7,8.7,15.2,11.1,23.6,3.1,11.2.2,21.5-5.6,26.5-6.9,6-14,6.3-18,3.2-3.6-2.9-6-5.8-6.7-11l1.3.3s.8,3.6,3.5,7c2,2.5,7.4,6.1,10.8,4.5,5-2.2,4.9-7.2,3.3-11.2-1.8-4.4-7.5-8-8.6-14.5-1.2-7.1,1-8.9.4-15.3-.5-5.4-3.9-8.4-3.9-8.4Z"/>
        <path class="st22" d="M263.1,167.1s.2-6.4,1-11.2c.8-4.5,2.6-10.8-.5-16.1-3.1-5.3-8.4-8.4-8.4-8.4,0,0-.6,3.6-1.5,7.7,0,0,5,5,5.5,12.3.3,3.5,3.9,15.7,3.9,15.7Z"/>
        <g class="st41">
          <path class="st13" d="M262.6,166.8s-.9-8.9-2-13.8c-1.4-6.1-2.7-11.4-6.9-13.8"/>
        </g>
        <path class="st32" d="M259.4,193.4s-3-1.1,1.7-1.9c4.7-.8,3.1-.6,3.1-.6l1.5-.2s3.4-3.2.5-10.2c-5.2,1.1-11.5,1.5-19.2-.3,0,2.3,1.7,5.3,2.7,6.6,1.7,2.2,2.7,3.3,4.7,4.4,2,1.2,3.5,1.7,5.1,2.1Z"/>
        <path class="st11" d="M239.3,181.3s8,2.8,20.1-13.7c12.1-16.5,9-23.1,8.7-24,0,0,3.3,11.4,3.3,16.2s-18.1,34.4-29,25.4c-.8-.8-2.5-3-3.1-3.9Z"/>
      </g>
      <g>
        <path class="st15" d="M427.8,141.7h-10.4c-1.5,0-2.6,1.2-2.6,2.6v38.9c0,1.5,1.2,2.6,2.6,2.6h8.7c1.5,0,2.6-1.2,2.6-2.6v-1.6c0-1.5-1.2-2.6-2.6-2.6h-1.9c-1.5,0-2.6-1.2-2.6-2.6v-25.4c0-1.5,1.2-2.6,2.6-2.6h1.9c.6,0,1.1.2,1.5.5l24,17.4c1.7,1.2,4.1,0,4.1-2.1v-1.1c0-.8-.4-1.6-1.1-2.1l-25.2-18.8c-.5-.4-1.1-.6-1.6-.6Z"/>
        <path class="st15" d="M456.1,185.8h10.4c1.5,0,2.6-1.2,2.6-2.6v-38.9c0-1.5-1.2-2.6-2.6-2.6h-8.7c-1.5,0-2.6,1.2-2.6,2.6v1.6c0,1.5,1.2,2.6,2.6,2.6h1.9c1.5,0,2.6,1.2,2.6,2.6v25.4c0,1.5-1.2,2.6-2.6,2.6h-1.9c-.6,0-1.1-.2-1.5-.5l-24-17.4c-1.7-1.2-4.1,0-4.1,2.1v1.1c0,.8.4,1.6,1.1,2.1l25.2,18.8c.5.4,1,.6,1.6.6Z"/>
      </g>
      <path class="st15" d="M577.5,148.9c0-.2-.2-.2-.3-.1-1.2.8-2,1.2-3,1.9v.2-.2s-4.8,2.5-10.5,4.5c-1.5.6-2.9,1-4.1,1.5.9-1.3,1.5-2.7,1.9-4.3.7-3.1.2-6.3-1.5-8.8-1.6-2.6-4.4-4.4-7.6-5.2-1.3-.3-2.7-.3-4-.2-4.9.7-8.9,4.4-10,9.2-.7,3.3,0,6.6,1.8,9.1-6.1,1.7-10,5.8-10.4,8.2h0c-.6.4-1.1.7-1.7,1.1-2.7,1.7-5.4,3.4-6.5,4,0,0-.1,0-.2,0-1.9-2.2-2.7-5.3-2.2-8.4,1-5.7,6.4-9.6,12.2-8.6.9.2,1.7.4,2.5.8.2-.3,4.4-6.2.1-11.4-1.5-1.8-3.7-3.1-6.1-3.5h-.1c-9.9-1.6-19.2,5-20.8,14.9-1.3,8,2.7,15.6,9.6,19.1-3.5,1.9-6.7,3.5-10.5,5.7h0c-1.6,1-2.8,2.4-3.6,3.5-1.2,1.7-.9,4,.8,5.2h0c.5.4,1.1.2,1.4-.3.2-.4,1.7-4.1,2.5-5.7.2.4.4.8.6,1.1.1.3.4.4.7.3,5.7-1.8,9.9-2.2,12.9-2.2h0c-.3.4-.8,1.5-1.2,2.9-.2.8-.3,1.3-.3,1.8h0c0,1,.4,1.3,1.1,1.3h0c.4,0,.8-1.5,1.1-2.5.1-.3.2-.6.2-1h0c.8,1.6,2.2,3.8,4.5,4.5,4.5,1.4,14-10.9,14-10.9,11.3-4,15-6.9,18.2-11.5l.3-.4c.1,0,1.2-.5,1.3-.6,6.1-2.8,12.6-7.6,13.6-8.3h0s1.9-1.3,3.1-3.1c.8-1.3.3-2.9.1-3.5ZM544.2,169.8l-.3-3.7c-2.3.7-5.2.5-6.9-1.9-.2-.2,0-.6.2-.6h0c1.6,2.5,4.5,2.4,6.8,1.8h0c1.6-.4,2.7-1.1,3.7-1.7,0,0,.2,0,.2,0,1,1.7.5,5-3.8,6.2ZM555.9,159.2c-1,.7-2.1,1.1-3.2,1.5-3.8,1.2-6.2-.8-6.7-1.5,0,0,0-.1,0-.1.7.3,3.3,1.2,5.5.5-.7-2.2.4-6.5,6.3-7.8,0,0,.6-.1.8-.2h0s.5,0,.8-.3c.1,0,.2-.2.2-.3.1,0,.1-.4.1-.6h0c0-.2,0-.4-.3-.7-.3-.3-1.3-.6-1.5-.6-7.5-2.6-11.2-2.1-11.4-2.1h0c0-.2-.3-.6-.3-.6-.7-1.7-.4-3-.4-3.1-.3-.3-.9-.6-1.3-.2-1,.9-1.5,3.3-1.5,3.2-.1-.7-.2-1.7.2-3.4.1-.6-.1-1.2-.6-1.3,1.6-1.4,3.6-2.4,5.8-2.6,1.2-.2,2.5-.1,3.8.2,3,.7,5.6,2.4,7.1,4.8,1.5,2.4,2,5.4,1.4,8.3-.7,2.9-2.4,5.3-4.8,6.9Z"/>
      <g>
        <path class="st12" d="M253.2,147s-6,6.6-10.9,11c-4.9,4.4-6.1,8.9-6,11.5.4,15.9,11.5,21.9,22.6,21.6,10.6-.3,14.3-12.4,12.9-23.9-1.5-11.5-1.3-27.9-12.4-38.3,0,0,.3,11.3-6.2,18.2Z"/>
        <path class="st23" d="M249.3,147.3c-5.5,6.2-13.1,15.5-13.1,22.1s12.4,9.6,21.6,9.6,20.1-3.1,20.1-8.2c0-10.9-.9-11.1-5.7-23.9-1.2-3.2,4.1,24.2-14.2,23.4-18.3-.8-18.4-11.1-7.3-19.6,4.4-3.4,3.8-5.2,3.8-5.2"/>
        <path class="st24" d="M247.9,148.7s.8,5.9-.8,13.9c-1.6,8-4.3,25.7,13.3,28.6,8.2-.2,10.6-11.4,10.6-11.4,0,0,5.2-44.7-15.5-53.2-.3,3.3-.6,9.8-3,15.5,0,0-1.2,3-4.6,6.7Z"/>
        <path class="st21" d="M253.2,140s1.8-3.9,2.4-13.4c0,0,4.9.8,10.1,8.7,3.7,5.7,8.7,15.2,11.1,23.6,3.1,11.2.2,21.5-5.6,26.5-6.9,6-14,6.3-18,3.2-3.6-2.9-6-5.8-6.7-11l1.3.3s.8,3.6,3.5,7c2,2.5,7.4,6.1,10.8,4.5,5-2.2,4.9-7.2,3.3-11.2-1.8-4.4-7.5-8-8.6-14.5-1.2-7.1,1-8.9.4-15.3-.5-5.4-3.9-8.4-3.9-8.4Z"/>
        <path class="st31" d="M263.1,167.1s.2-6.4,1-11.2c.8-4.5,2.6-10.8-.5-16.1-3.1-5.3-8.4-8.4-8.4-8.4,0,0-.6,3.6-1.5,7.7,0,0,5,5,5.5,12.3.3,3.5,3.9,15.7,3.9,15.7Z"/>
        <g class="st41">
          <path class="st7" d="M262.6,166.8s-.9-8.9-2-13.8c-1.4-6.1-2.7-11.4-6.9-13.8"/>
        </g>
        <path class="st34" d="M259.4,193.4s-3-1.1,1.7-1.9c4.7-.8,3.1-.6,3.1-.6l1.5-.2s3.4-3.2.5-10.2c-5.2,1.1-11.5,1.5-19.2-.3,0,2.3,1.7,5.3,2.7,6.6,1.7,2.2,2.7,3.3,4.7,4.4,2,1.2,3.5,1.7,5.1,2.1Z"/>
        <path class="st6" d="M239.3,181.3s8,2.8,20.1-13.7c12.1-16.5,9-23.1,8.7-24,0,0,3.3,11.4,3.3,16.2s-18.1,34.4-29,25.4c-.8-.8-2.5-3-3.1-3.9Z"/>
      </g>
    </g>
  </g>
</svg>