<?xml version="1.0" encoding="UTF-8"?>
<svg width="123px" height="32px" viewBox="0 0 123 32" version="1.1" xmlns="http://www.w3.org/2000/svg" xmlns:xlink="http://www.w3.org/1999/xlink">
    <title>oban-pro-logotype</title>
    <g id="Pro" stroke="none" stroke-width="1" fill="none" fill-rule="evenodd">
        <g id="Logotype" transform="translate(-0, -0)">
            <g id="Pro-Logo-Copy">
                <polygon id="Path" fill="#E3F3FB" points="28.9748428 10.6243384 27.3113385 4.68615802 21.3731581 3.02265365 23.599638 8.39785843"></polygon>
                <polygon id="Path" fill="#99C5D4" points="26.7483629 15.9995432 23.599638 8.39785843 28.9748428 10.6243384"></polygon>
                <path d="M27.312259,4.68484173 L28.975772,10.6230221 L30.7798181,9.87575756 C29.9867415,7.95270353 28.7864329,6.15646913 27.3131365,4.68796469 L27.312259,4.68484173 Z" id="Path" fill="#4E7EAC"></path>
                <path d="M30.7798181,9.87575756 C31.5797341,11.7970996 32.0016862,13.917029 31.9984359,15.9982269 L28.975772,10.6230221 L30.7798181,9.87575756 Z" id="Path" fill="#16495E"></path>
                <polygon id="Path" fill="#ACE6EA" points="28.975772 21.3734317 31.998417 15.9982269 28.975772 10.6230221 26.749292 15.9982269"></polygon>
                <polygon id="Path" fill="#B6D6E8" points="23.6005672 23.5999116 26.749292 15.9982269 28.975772 21.3734317"></polygon>
                <path d="M32,15.9979516 L28.977355,21.3731564 L30.781401,22.1204209 C31.5804224,20.1998274 32.0018067,18.0809475 31.998417,16.0007734 L32,15.9979516 Z" id="Path" fill="#406484"></path>
                <path d="M30.781401,22.1204209 C29.9884449,24.0446364 28.7877836,25.842015 27.3138506,27.3113367 L28.977355,21.3731564 L30.781401,22.1204209 Z" id="Path" fill="#5B84A6"></path>
                <polygon id="Path" fill="#9BC4E4" points="21.3756702 28.9748497 27.3138506 27.3113367 28.977355 21.3731564 23.6021502 23.5996363"></polygon>
                <polygon id="Path" fill="#506882" points="16.0004654 26.7483611 23.6021502 23.5996363 21.3756702 28.9748497"></polygon>
                <path d="M27.3151669,27.3122659 L21.3769865,28.9757702 L22.124251,30.7798249 C24.0473051,29.9867484 25.8435395,28.7864398 27.3120439,27.3131348 L27.3151669,27.3122659 Z" id="Path" fill="#3C6A91"></path>
                <path d="M22.124251,30.7798249 C20.2029091,31.579741 18.0829796,32.0016845 16.0017817,31.9984341 L21.3769865,28.9757702 L22.124251,30.7798249 Z" id="Path" fill="#1D4268"></path>
                <polygon id="Path" fill="#4D87B9" points="10.6265769 28.9757788 16.0017817 31.9984239 21.3769865 28.9757788 16.0017817 26.7492903"></polygon>
                <polygon id="Path" fill="#6588A8" points="8.40009698 23.6005741 16.0017817 26.7492903 10.6265769 28.9757788"></polygon>
                <path d="M16.002057,32.0000069 L10.6268522,28.9773532 L9.8795877,30.7814079 C11.8001812,31.5804293 13.9190611,32.0018136 15.9992352,31.9984153 L16.002057,32.0000069 Z" id="Path" fill="#156A90"></path>
                <path d="M9.8795877,30.7814079 C7.95537224,29.9884432 6.15799362,28.7877905 4.68867187,27.3138489 L10.6268522,28.9773532 L9.8795877,30.7814079 Z" id="Path" fill="#316087"></path>
                <polygon id="Path" fill="#417BB1" points="3.02516751 21.3756771 4.68867187 27.3138575 10.6268522 28.9773618 8.40037228 23.6021571"></polygon>
                <polygon id="Path" fill="#87BDD7" points="5.25164747 16.0004723 8.40037228 23.6021571 3.02516751 21.3756771"></polygon>
                <path d="M4.68774273,27.3151652 L3.02423836,21.3769848 L1.22018367,22.1242493 C2.01326021,24.047312 3.21356878,25.8435377 4.68687381,27.3120508 L4.68774273,27.3151652 Z" id="Path" fill="#284963"></path>
                <path d="M1.22018367,22.1242493 C0.42026673,20.2029159 -0.00167934284,18.0829865 0.00156761403,16.0017886 L3.02423836,21.3769848 L1.22018367,22.1242493 Z" id="Path" fill="#467BAA"></path>
                <polygon id="Path" fill="#7FADD0" points="3.02423836 10.6265838 0.00158900934 16.0017886 3.02423836 21.3769934 5.25071833 16.0017886"></polygon>
                <polygon id="Path" fill="#ABCAE7" points="8.39944314 8.40010386 5.25071833 16.0017886 3.02423836 10.6265838"></polygon>
                <path d="M-6.68817047e-16,16.0020553 L3.02264677,10.6268505 L1.21860068,9.87959458 C0.419577615,11.8001881 -0.00180322879,13.9190594 0.00158642838,15.9992335 L-6.68817047e-16,16.0020553 Z" id="Path" fill="#94C0CE"></path>
                <path d="M1.21860068,9.87959458 C2.01155677,7.95537912 3.21221808,6.1579919 4.68615974,4.68867875 L3.02264677,10.6268505 L1.21860068,9.87959458 Z" id="Path" fill="#B3D6E2"></path>
                <polygon id="Path" fill="#E7FAFA" points="10.6243401 3.02516578 4.68615974 4.68867875 3.02264677 10.6268505 8.39785155 8.40037056"></polygon>
                <polygon id="Path" fill="#AED4F0" points="15.9995449 5.25165435 8.39785155 8.40037056 10.6243401 3.02516578"></polygon>
                <path d="M4.68484345,4.68774961 L10.6230152,3.02423664 L9.87575928,1.22019055 C7.95269665,2.01325848 6.15646225,3.21357566 4.68795781,4.68687208 L4.68484345,4.68774961 Z" id="Path" fill="#C6DDE5"></path>
                <path d="M9.87575928,1.22019055 C11.7970927,0.420274473 13.9170221,-0.0016776222 15.99822,0.00157273669 L10.6230152,3.02423664 L9.87575928,1.22019055 Z" id="Path" fill="#A9D5E9"></path>
                <polygon id="Path" fill="#F8FFFF" points="21.3734334 3.02423664 15.9982286 0.00159159029 10.6230238 3.02423664 15.9982286 5.25072521"></polygon>
                <polygon id="Path" fill="#C2E8F8" points="23.5999133 8.39944142 15.9982286 5.25072521 21.3734334 3.02423664"></polygon>
                <path d="M15.9979533,0 L21.3731495,3.02265365 L22.120414,1.21859896 C20.1998205,0.419577615 18.0809406,-0.00179806687 16.0007751,0.00159159029 L15.9979533,0 Z" id="Path" fill="#BEDEE6"></path>
                <path d="M22.120414,1.21859896 C24.0446295,2.01156366 25.8420081,3.21222496 27.3113298,4.68615802 L21.3731495,3.02265365 L22.120414,1.21859896 Z" id="Path" fill="#9FCFF0"></path>
            </g>
            <g id="pro" transform="translate(92, 11)" fill="#102433" fill-rule="nonzero">
                <path d="M12.7539774,3.81983482 C11.7947595,4.1328642 10.8292627,4.4780283 9.87911354,4.84814407 C9.88329947,4.37519713 9.85260422,3.90376261 9.77970389,3.44177961 C9.59937085,2.30156604 9.07371935,1.16588905 8.19612205,0.47745129 C7.20237206,-0.302098018 5.8772555,-0.0510696136 4.91943267,0.683869318 C3.59954868,1.69667877 2.67521128,3.16428817 2.03724392,4.74985053 C2.01561806,4.80315638 1.99538729,4.85721827 1.97445865,4.91090214 C1.99992134,4.571031 2.02154752,4.23040347 2.04945194,3.89053233 C2.11433016,3.10455636 2.27094406,2.27283561 2.24303964,1.48534721 C2.2067637,0.45855003 0.781539946,0.171228353 0.540863373,1.23583123 C0.362274519,2.02558809 0.364715928,2.89587058 0.30646536,3.70566416 C0.248912337,4.50789703 0.198335419,5.31088558 0.154734604,6.1142525 C0.0661378854,7.75198666 0.0232346165,9.39236695 0.00579435596,11.0327472 C-0.0112971319,12.6455294 0.00788699183,14.2522629 0.0839269186,15.8631549 C0.161013163,17.4925716 0.349368629,19.091744 0.553420491,20.7067946 C0.613066475,21.1782291 1.27614775,21.0364586 1.29219292,20.5982928 C1.35044382,18.9874008 1.44008685,17.3818013 1.48159503,15.7701533 C1.52240534,14.1910179 1.56077391,12.6111262 1.61972235,11.0327469 C1.66157898,9.91521652 1.72262005,8.79882022 1.78889337,7.68280193 C1.94446095,7.03065709 2.15618646,6.39212232 2.40662964,5.79063685 C2.65811915,5.18726129 2.99785659,4.64928923 3.36828929,4.12606093 C3.72163017,3.62665025 4.06206549,3.12421507 4.54899965,2.76506288 C5.01570272,2.42065482 5.48694048,2.21196868 6.03805499,2.08758836 C6.10223535,2.07322226 6.1664157,2.05923417 6.23094515,2.04675816 C6.25466397,2.04222124 6.26687232,2.03957511 6.27489474,2.03768467 C6.27942911,2.03692863 6.2808242,2.03692863 6.28640521,2.0361726 C6.36907247,2.02558703 6.44685626,2.02709945 6.52603547,2.02785549 C6.47580732,2.02558738 6.50301419,2.02029442 6.56335772,2.02785549 C6.57835625,2.02785549 6.59300633,2.02823351 6.60835363,2.02785549 C6.59161091,2.02823351 6.57975134,2.02823351 6.56684545,2.02823351 C6.58637867,2.03087999 6.60835363,2.03428251 6.63276999,2.0403315 C6.71508848,2.06036858 6.81798618,2.10346689 6.89995589,2.11064994 C6.90170008,2.11064994 6.90170008,2.11027192 6.90344427,2.11027192 C6.90937406,2.11443047 6.91146702,2.11669858 6.91844312,2.12161317 C6.98018174,2.16508949 7.04680383,2.20554132 7.11063541,2.24561512 C7.12179711,2.25242015 7.12633148,2.25468826 7.13505145,2.25998087 C7.13749319,2.26300537 7.13749319,2.2637614 7.14063247,2.26791996 C7.20620824,2.34693316 7.28364325,2.42027574 7.35270675,2.4962648 C7.36840315,2.5136554 7.37782099,2.52348493 7.3875876,2.53331446 C7.39002933,2.53822905 7.39072688,2.54049716 7.39456403,2.54730219 C7.43886239,2.62782783 7.49222981,2.70306085 7.53687694,2.7839645 C7.58919773,2.87847821 7.6348915,2.97639444 7.68198037,3.07393265 C7.70221113,3.1158969 7.71860475,3.15937323 7.73744043,3.2017155 C7.73848675,3.20511801 7.73848675,3.20587405 7.73953306,3.20927656 C7.87556742,3.67352803 8.01509016,4.11698638 8.08485153,4.60089691 C8.0852003,4.60429942 8.0852003,4.60505546 8.0855494,4.60921401 C8.09113041,4.66856851 8.0970602,4.727923 8.10194366,4.7872775 C8.11275659,4.92262106 8.1197327,5.05834299 8.12391862,5.19406491 C8.12775545,5.31806687 8.12775545,5.44206882 8.12566281,5.56607077 C6.94181317,6.07720108 5.76284667,6.6480639 4.69131289,7.38829544 C3.7216305,8.05858691 2.36651688,9.20636155 2.82170947,10.6558243 C3.10773105,11.5665586 4.18414797,11.9121007 4.98570567,11.8387582 C5.77052065,11.7669277 6.51068817,11.3726163 7.1462138,10.8834131 C8.7290981,9.66569807 9.65099409,7.65558003 9.84318638,5.58157058 C10.2854731,5.3906527 10.7263644,5.19671069 11.1700465,5.00881731 C11.7549952,4.76119143 12.3518032,4.5302001 12.9050103,4.20696317 C13.0999931,4.09430282 12.9674465,3.75027313 12.7539768,3.81983517 L12.7539774,3.81983482 Z M8.024508,6.63672265 C7.9707918,6.92215388 7.90103043,7.20380493 7.81452635,7.47978501 C7.66070263,7.97050021 7.42490953,8.44306878 7.13016798,8.88123452 C6.47755086,9.8505673 5.19708175,11.1661986 3.99265225,10.6482632 C3.2287659,10.3197337 3.56536407,9.43924367 3.95219039,8.92433283 C4.27971981,8.48805753 4.67945235,8.1587716 5.11580926,7.85897392 C6.04154207,7.22270725 7.05552282,6.74824824 8.07996806,6.31726555 C8.0695039,6.39627875 8.05450537,6.47793879 8.024508,6.63672159 L8.024508,6.63672265 Z" id="Shape"></path>
                <path d="M21.8909602,3.35501863 C21.3970497,3.11007045 21.0880513,2.47241578 20.8155488,2.01156876 C20.4992514,1.4768426 20.2121507,0.864651607 19.8016592,0.398066307 C19.1322208,-0.363317389 18.1537841,0.572363418 17.6536171,1.07409495 C16.810389,1.91975823 16.3404614,3.01861818 15.9101579,4.1307477 C15.8740096,4.22399298 15.841337,4.31831405 15.8062313,4.41191793 C15.8747047,3.28974657 15.9695937,2.16936856 16.0797765,1.05078355 C16.1131441,0.711872559 15.8674056,0.299441686 15.5785668,0.149173178 C15.3314378,0.0207816697 15.070058,-0.0520216781 14.7989461,0.0440927368 C14.3620385,0.19902339 14.0714621,0.568418473 14.0561687,1.05078355 C14.0148066,2.3526317 13.9863052,3.65555531 14.0068124,4.95812066 C14.0168922,5.59828553 14.0485218,6.237016 14.0944023,6.87538754 C14.1187328,7.21465713 14.1576618,7.55320919 14.2052805,7.88996824 C14.2539417,8.23461719 14.2845287,8.60401193 14.5650254,8.83533228 C14.7634931,8.99887002 15.0328674,9.06091401 15.2508,8.92714281 C15.4461399,8.88769303 15.625491,8.7740055 15.7165567,8.58500441 C16.6755289,6.59421698 17.231656,4.43020858 18.1346678,2.41359954 C18.3411301,1.95239392 18.4440137,1.29680787 18.922631,1.0443284 C18.9890187,1.00954077 19.1297884,1.00523689 19.1735833,0.964710966 C19.1725407,0.965786769 19.1944384,0.961483223 19.2121648,0.955027738 C19.2580454,1.02209247 19.3021879,1.06477033 19.3522394,1.13829054 C19.7206739,1.67732025 20.0400996,2.24683372 20.4286937,2.77223526 C20.7220509,3.16924529 21.2670555,3.94031221 21.8374336,3.77749133 C22.0119185,3.72764112 22.0699644,3.44360176 21.8909612,3.35501863 L21.8909602,3.35501863 Z" id="Shape"></path>
                <path d="M31.595532,3.61271954 C30.5300845,4.37914448 29.3240468,5.15105186 28.0306151,5.61010289 C28.2973568,4.88241951 28.4288275,4.12001487 28.3452331,3.35395505 C28.1677855,1.7282711 26.8363562,0.102221698 25.0565578,0.0042713011 C23.9314549,-0.0574957026 22.8739871,0.556886982 22.2561491,1.44209506 C22.2474095,1.43697841 22.2409499,1.43039961 22.2322103,1.42528295 C21.754203,1.15628481 20.9288991,1.27360582 20.6845758,1.8156224 C20.3498186,2.55865642 20.2213875,3.35797535 20.1130948,4.15692883 C19.9717443,5.20185465 19.9455262,6.24787716 20.1351332,7.28951359 C20.3175208,8.2913121 20.8616439,9.29968942 21.8605956,9.74448617 C23.4610463,10.4568192 25.2286856,9.57526568 26.2945127,8.38670366 C26.8298962,7.78986433 27.329942,7.10128794 27.7049764,6.36008151 C29.2685696,5.92880747 30.770607,5.08599545 31.9242081,4.02352628 C32.1415534,3.82323974 31.8474533,3.43143849 31.5955306,3.61271988 L31.595532,3.61271954 Z M25.1576306,6.87724504 C24.7651173,7.34616428 24.2700111,7.84614957 23.6498935,8.01646641 C23.5100632,8.05484251 23.3873314,8.06032495 23.2437014,8.0680001 C23.2106437,8.0698277 23.1901253,8.0716553 23.1753063,8.073848 C23.1680868,8.0716553 23.1620071,8.06946225 23.1490878,8.06617285 C23.0761328,8.0486295 23.0043176,8.02706585 22.9317425,8.00806036 C22.9070441,7.99599945 22.8823457,7.98393821 22.8584076,7.97004971 C22.8443485,7.96164331 22.8306697,7.95250636 22.8169905,7.94373485 C22.7797532,7.90206936 22.7364361,7.86076931 22.6942592,7.82056562 C22.6809599,7.80229136 22.666141,7.78182407 22.6509421,7.75477797 C22.636883,7.72992492 22.5852066,7.63489847 22.5578486,7.58665417 C22.5418895,7.55120202 22.5244106,7.51209468 22.5190911,7.49747528 C22.4879331,7.41524098 22.4571554,7.33337179 22.4309372,7.24967534 C22.371661,7.05962245 22.3367036,6.8673765 22.2956661,6.67366876 C22.2952862,6.6725724 22.2952862,6.6725724 22.2952862,6.67147605 C22.2907263,6.63163815 22.2854068,6.59180025 22.2816071,6.55159689 C22.2705878,6.43939255 22.2622285,6.3271882 22.2565287,6.2146184 C22.2455095,6.00044336 22.2436094,5.78553741 22.2481694,5.57136237 C22.2519691,5.40689342 22.2637482,5.24279027 22.2751478,5.07832132 C22.5992657,5.58488541 23.0442153,6.01615945 23.5773188,6.29173639 C24.0956033,6.55963784 24.7012819,6.66526338 25.3126602,6.68024824 C25.2606039,6.74640133 25.2112071,6.81365078 25.1576306,6.87724538 L25.1576306,6.87724504 Z M25.7800282,6.02788883 C25.4418512,6.02895194 25.1006344,6.0030022 24.7563781,5.93977339 C22.5190908,5.52750484 21.6823878,1.9088233 24.2327737,1.27580091 C24.7943753,1.13655047 25.3833353,1.29955727 25.8294247,1.6478661 C26.3389699,2.04551524 26.5525155,2.58387697 26.5946928,3.20227996 C26.6638481,4.21833243 26.3199717,5.17407936 25.7800282,6.02788883 L25.7800282,6.02788883 Z" id="Shape"></path>
            </g>
            <g id="oban" transform="translate(37, 6)" fill="#284963" fill-rule="nonzero">
                <path d="M11.5290452,8.66507197 C11.2186196,7.94009585 10.7861404,7.29607062 10.2440206,6.75322783 C9.70494235,6.2136705 9.06129262,5.78186654 8.3312954,5.46947564 C7.60255927,5.15834459 6.8145767,5 5.98886038,5 C5.16188298,5 4.37491423,5.15708475 3.65149445,5.47048846 C2.92706086,5.78085373 2.28771366,6.21265769 1.74964918,6.75448767 C1.21183198,7.29607062 0.78162767,7.93908303 0.469940964,8.66507197 C0.15850153,9.39081387 0,10.1782632 0,11.0054346 C0,11.8303333 0.157487714,12.61551 0.469940964,13.341499 C0.78162767,14.0642024 1.21183198,14.7049422 1.74964918,15.2465251 C2.28974129,15.7893679 2.92908849,16.2214189 3.65149445,16.5292645 C4.37592804,16.8416554 5.16188298,17 5.98886038,17 C6.8145767,17 7.60255927,16.8426682 8.3312954,16.5305244 C9.05699008,16.2201591 9.70063982,15.7893679 10.2440206,15.2465251 C10.7851266,14.7069678 11.2173585,14.0652152 11.530059,13.341499 C11.8417457,12.6144972 12,11.8293205 12,11.0054346 C11.9989862,10.179276 11.8404847,9.39207371 11.5290452,8.66507197 Z M10.0014465,12.6779586 C9.77076623,13.1980254 9.45576608,13.6611772 9.06557043,14.0542719 C8.6774024,14.4453411 8.21277779,14.7587448 7.68457948,14.9859112 C7.1584088,15.211052 6.5945291,15.3241165 6.00911198,15.3241165 C5.41407597,15.3241165 4.84816864,15.211052 4.32860013,14.9859112 C3.80673199,14.7607704 3.34312119,14.4473667 2.95292554,14.0532591 C2.56272989,13.6601644 2.24772973,13.1970126 2.01704942,12.6779586 C1.78965784,12.1609054 1.67319259,11.5975841 1.67319259,11.0054099 C1.67319259,10.4119759 1.78864402,9.84635717 2.0170247,9.32196733 C2.24567737,8.79733046 2.56040553,8.33215309 2.95186227,7.94007114 C3.33978302,7.55228747 3.80238,7.23888377 4.32855068,7.00741906 C4.85014682,6.78025263 5.41632615,6.66491552 6.00807344,6.66491552 C6.59349056,6.66491552 7.15638117,6.78025263 7.68227985,7.00741906 C8.21173925,7.24014361 8.67636386,7.55354731 9.06453188,7.94007114 C9.45574135,8.33215309 9.76945569,8.79733046 9.99912218,9.32196733 C10.2277749,9.84635717 10.3442661,10.4140015 10.3442661,11.0054099 C10.3462677,11.5965713 10.2298272,12.15762 10.0014465,12.6779586 Z" id="Shape"></path>
                <path d="M24.5796168,8.8958074 C24.3000091,8.19229942 23.9102102,7.56857814 23.4209089,7.04113953 C22.9316075,6.51394138 22.3502616,6.09238005 21.6925397,5.78730055 C21.033579,5.48222106 20.3166561,5.32808221 19.5624198,5.32808221 C19.034056,5.32808221 18.5392888,5.39726434 18.0912849,5.53565265 C17.6465119,5.67404096 17.2430363,5.86586087 16.8935388,6.11012646 C16.5947886,6.31671099 16.3226387,6.55777838 16.0853244,6.82520086 L15.7136721,7.24356399 L15.7136721,0 L14,0 L14,16.8227043 L15.7136721,16.8227043 L15.7136721,15.4410575 L16.0696314,15.7690534 C16.2178891,15.9064558 16.3872813,16.0396741 16.5768364,16.1687083 C16.9146491,16.3991951 17.3308297,16.5974115 17.8149081,16.7589326 C18.3032135,16.9192274 18.8910212,17 19.5614238,17 C20.3156601,17 21.031587,16.8458612 21.6925397,16.5388098 C22.3470064,16.2366881 22.9283523,15.817339 23.4198886,15.2930986 C23.9081939,14.7720564 24.2989888,14.1505474 24.5805885,13.4438412 C24.8592002,12.7393473 25,11.9728132 25,11.1646543 C24.999004,10.3626514 24.8582285,9.59931538 24.5796168,8.8958074 Z M22.9835694,12.8043454 C22.7833256,13.3128352 22.5047139,13.7634449 22.1564553,14.1431411 C21.8111847,14.5193986 21.401223,14.8215203 20.9382792,15.0404167 C20.4808254,15.2563554 19.9882932,15.3676431 19.4726101,15.3676431 C18.9566841,15.3676431 18.4631559,15.2575818 18.0066981,15.0403927 C17.5437543,14.8224822 17.1308288,14.5193745 16.7800924,14.1421311 C16.429599,13.7646472 16.1479993,13.3137971 15.9425326,12.8030949 C15.7390578,12.2946051 15.6343325,11.74526 15.6343325,11.1739844 C15.6343325,10.6027088 15.7380618,10.0543496 15.9425326,9.54364745 C16.1479993,9.03417166 16.429599,8.58332155 16.7800924,8.20706405 C17.1308288,7.82859426 17.5427583,7.52548659 18.0057021,7.3075761 C18.4631559,7.09137292 18.9556881,6.98032562 19.4713712,6.98032562 C19.9863012,6.98032562 20.4798294,7.09038701 20.9362872,7.3075761 C21.400227,7.5264725 21.8111605,7.82958017 22.1551921,8.20583767 C22.5036936,8.58430746 22.7813093,9.03417166 22.9825491,9.54364745 C23.18255,10.0521373 23.2852833,10.6014824 23.2852833,11.1739844 C23.2852833,11.7464864 23.1848092,12.2946291 22.9835694,12.8043454 Z" id="Shape"></path>
                <path d="M35.3741568,5.02784005 L35.3625536,6.85342597 L35.0006601,6.45072101 C34.771419,6.19447893 34.5044014,5.96503937 34.2087255,5.77001081 C33.8406565,5.52666358 33.4221945,5.3359333 32.9656905,5.20135248 C32.5101755,5.06677165 32.0252787,5 31.5216142,5 C30.7348661,5 29.9965329,5.15834491 29.3256235,5.47174927 C28.6544728,5.78389378 28.0655817,6.22024394 27.5745094,6.76511348 C27.0844262,7.30998302 26.6951289,7.9542566 26.417473,8.68125984 C26.139817,9.4092759 26,10.1944542 26,11.0170573 C26,11.8422047 26.1420363,12.6251104 26.4238897,13.3457897 C26.704754,14.0705203 27.0947991,14.7092358 27.5861126,15.2455087 C28.0781739,15.7850672 28.6673063,16.217119 29.3372266,16.5282507 C30.008136,16.8406423 30.7432609,17 31.5226033,17 C32.0191032,17 32.494375,16.9365138 32.9372736,16.8115424 C33.3821503,16.6855581 33.7934477,16.5024116 34.1582843,16.2653883 C34.4485324,16.0769307 34.7503838,15.8196758 34.9650545,15.5730431 L35.3321345,15.1528732 L35.3321345,15.7161958 C35.3321345,16.0038104 35.3321345,16.7457341 37,16.8039092 L37,6.90394318 C36.999011,5.94018836 36.2881297,5.13989193 35.3741568,5.02784005 Z M35.0354455,12.710335 C34.8482026,13.2271175 34.5831389,13.6839463 34.2476842,14.0684453 C33.9142076,14.448646 33.51034,14.7521939 33.0454412,14.9720241 C32.5837507,15.1905697 32.070437,15.3026216 31.521566,15.3026216 C30.9672431,15.3026216 30.448743,15.1895569 29.9806358,14.9664413 C29.5137589,14.7425845 29.1034505,14.4344913 28.7618203,14.0499923 C28.4199489,13.6644805 28.1496987,13.2066389 27.9582584,12.6875838 C27.7658291,12.1685286 27.6680102,11.6052061 27.6680102,11.0160692 C27.6680102,10.4269322 27.7658291,9.86259688 27.9592474,9.33820596 C28.1516768,8.81458082 28.4199489,8.35167516 28.7586119,7.96389069 C29.0962859,7.57711904 29.5043509,7.26497453 29.9722169,7.0375606 C30.439335,6.81140652 30.9610435,6.69732901 31.5225309,6.69732901 C32.0768537,6.69732901 32.5921455,6.81140652 33.0550663,7.03654778 C33.5177458,7.26497453 33.9226024,7.57837888 34.257068,7.96920179 C34.5915337,8.36229736 34.8556084,8.82646287 35.0406319,9.34882816 C35.2268858,9.87119345 35.3214962,10.4368133 35.3214962,11.0289887 C35.3205072,11.6257094 35.2246664,12.1910082 35.0354455,12.710335 Z" id="Shape"></path>
                <path d="M48.6371363,8.03717511 C48.3974551,7.43580345 48.0578206,6.90451911 47.6277917,6.45618603 C47.1987969,6.01118806 46.684326,5.65272722 46.097015,5.39261429 C45.5076359,5.13225061 44.8642824,5 44.1837522,5 C43.7746573,5 43.3722713,5.05238368 42.9884737,5.15842991 C42.6090647,5.2613918 42.246201,5.40878829 41.9096687,5.59700844 C41.613945,5.76416478 41.3378438,5.96419571 41.0893855,6.19068177 L40.7208469,6.52732653 L40.7208469,5.02748325 L39,5.02748325 L39,17 L40.7208469,17 L40.7208469,9.83898309 C40.7275559,9.39732022 40.817698,8.99597949 40.9959141,8.61106351 C41.1717846,8.22845453 41.4114658,7.89283789 41.7095098,7.6108838 C42.0065198,7.32867896 42.3559655,7.10449988 42.7498266,6.94376298 C43.141115,6.78302608 43.5623416,6.70110292 43.9988272,6.70110292 C44.4916075,6.70110292 44.9381566,6.78636119 45.3273768,6.95248942 C45.7165971,7.11889348 46.0551975,7.35049504 46.3346533,7.64245443 C46.6151431,7.93647006 46.839313,8.28414823 46.9999496,8.67573441 C47.1603339,9.06706983 47.2605395,9.49897815 47.2902506,9.93627781 L47.2902506,16.9748237 L49,16.9648184 L49,9.97223673 C48.9989659,9.28894192 48.8781038,8.63726789 48.6371363,8.03717511 Z" id="Path"></path>
            </g>
        </g>
    </g>
</svg>