<?xml version="1.0" encoding="utf-8"?>
<!-- Generator: Adobe Illustrator 29.1.0, SVG Export Plug-In . SVG Version: 9.03 Build 55587)  -->
<svg version="1.0" id="Layer_1" xmlns="http://www.w3.org/2000/svg" xmlns:xlink="http://www.w3.org/1999/xlink" x="0px" y="0px"
	 viewBox="0 0 1500 351.7" style="enable-background:new 0 0 1500 351.7;" xml:space="preserve">
<style type="text/css">
	.st0{display:none;}
	.st1{display:inline;}
	.st2{fill:#FFFFFF;}
	.st3{fill:#AD3A8A;}
	.st4{fill:#F9D75A;}
	.st5{fill:#9AD7D8;}
	.st6{fill:#BF439F;}
	.st7{display:inline;fill:url(#SVGID_1_);}
	
		.st8{display:inline;opacity:0.5;fill:url(#SVGID_00000170989763130620621250000011164146669091119766_);enable-background:new    ;}
	
		.st9{display:inline;opacity:0.5;fill:url(#SVGID_00000007389636528723861820000005028978173546770345_);enable-background:new    ;}
	
		.st10{display:inline;opacity:0.5;fill:url(#SVGID_00000054973258791265558900000003229479152461740160_);enable-background:new    ;}
	
		.st11{display:inline;opacity:0.5;fill:url(#SVGID_00000173841559208914661150000002233601266188618678_);enable-background:new    ;}
	.st12{display:inline;opacity:0.5;}
	.st13{fill:url(#SVGID_00000029033405319590215820000005407596132316913834_);}
	
		.st14{display:inline;opacity:0.4;fill:url(#SVGID_00000053534865855597079960000002489536743825692854_);enable-background:new    ;}
	.st15{display:inline;fill:url(#SVGID_00000120526293598333636530000013252926373279049620_);}
	.st16{fill:url(#SVGID_00000133498146004437468400000015233173899663163030_);}
	.st17{opacity:0.5;fill:url(#SVGID_00000018220463759260247910000013202629221357189550_);enable-background:new    ;}
	.st18{opacity:0.5;fill:url(#SVGID_00000102546379859498044430000001218382119623896254_);enable-background:new    ;}
	.st19{opacity:0.5;fill:url(#SVGID_00000085234294948472832390000012698530769423093914_);enable-background:new    ;}
	.st20{opacity:0.5;fill:url(#SVGID_00000054969502925710701350000002486908351171794611_);enable-background:new    ;}
	.st21{opacity:0.5;}
	.st22{fill:url(#SVGID_00000036967464371678356130000008745783182515468678_);}
	.st23{opacity:0.4;fill:url(#SVGID_00000030482070954737504450000016945800053492332447_);enable-background:new    ;}
	.st24{fill:url(#SVGID_00000114069975121047491910000008642120930005012142_);}
</style>
<g>
	<g class="st0">
		<g class="st1">
			<path class="st2" d="M1304.6-21.4c2.5,1.4,4.5,3.4,6,6c1.4,2.5,2.2,5.3,2.2,8.4c0,3.1-0.7,5.9-2.2,8.4c-1.5,2.6-3.5,4.6-6,6
				c-2.5,1.5-5.3,2.2-8.4,2.2s-5.9-0.7-8.4-2.2s-4.5-3.5-6-6s-2.2-5.3-2.2-8.4c0-3,0.7-5.8,2.2-8.4c1.5-2.5,3.5-4.5,6-6
				s5.4-2.2,8.5-2.2C1299.3-23.6,1302.1-22.9,1304.6-21.4z M1303.6,5.9c2.3-1.3,4-3.1,5.4-5.4c1.3-2.3,2-4.8,2-7.6s-0.6-5.3-1.9-7.5
				s-3.1-4-5.3-5.3c-2.2-1.3-4.8-2-7.5-2c-2.8,0-5.3,0.7-7.6,2c-2.3,1.3-4.1,3.1-5.4,5.4c-1.3,2.3-2,4.8-2,7.5s0.7,5.2,2,7.5
				s3.1,4.1,5.3,5.4c2.3,1.3,4.8,2,7.5,2C1298.8,7.9,1301.3,7.2,1303.6,5.9z M1303.4-6.5c-0.7,1-1.8,1.8-3.1,2.2l4.4,6.8h-2.5
				l-4.1-6.4c-0.3,0-0.6,0-1.1,0h-4.9v6.3h-2.4v-19h7.3c2.3,0,4.2,0.6,5.5,1.7c1.3,1.1,2,2.7,2,4.6
				C1304.5-8.7,1304.1-7.5,1303.4-6.5z M1300.7-7c0.9-0.8,1.4-1.8,1.4-3.2c0-1.3-0.5-2.4-1.4-3.1c-0.9-0.7-2.2-1.1-3.9-1.1h-4.8v8.6
				h4.8C1298.5-5.9,1299.8-6.2,1300.7-7z"/>
		</g>
		<g class="st1">
			<path class="st2" d="M253.6,140.1v32.7H117.3v-176h133v32.7h-92.5v38.2h81.7v31.7h-81.7v40.7H253.6z"/>
			<path class="st2" d="M272.7-13.8h39.2v186.5h-39.2V-13.8z"/>
			<path class="st2" d="M339.8,12.4C335.3,8.2,333,3,333-3.2c0-6.2,2.3-11.4,6.8-15.6c4.5-4.2,10.4-6.3,17.6-6.3s13.1,2,17.6,6
				c4.5,4,6.8,9.1,6.8,15.1c0,6.5-2.3,11.9-6.8,16.2s-10.4,6.4-17.6,6.4C350.2,18.7,344.3,16.6,339.8,12.4z M337.8,37.5H377v135.3
				h-39.2V37.5z"/>
			<path class="st2" d="M488.9,172.8l-29.7-41.5l-30.7,41.5h-42.7l52-68.1l-50.3-67.1h44l28.7,39.5l29.4-39.5h41.7L481,103.7
				l52.3,69.1H488.9z"/>
			<path class="st2" d="M543.9,12.4c-4.5-4.2-6.8-9.4-6.8-15.6c0-6.2,2.3-11.4,6.8-15.6c4.5-4.2,10.4-6.3,17.6-6.3
				c7.2,0,13.1,2,17.6,6c4.5,4,6.8,9.1,6.8,15.1c0,6.5-2.3,11.9-6.8,16.2s-10.4,6.4-17.6,6.4C554.3,18.7,548.5,16.6,543.9,12.4z
				 M541.9,37.5h39.2v135.3h-39.2V37.5z"/>
			<path class="st2" d="M663.5,40.5c8-3.4,17.1-5,27.5-5v36.2c-4.4-0.3-7.3-0.5-8.8-0.5c-11.2,0-20,3.1-26.4,9.4
				c-6.4,6.3-9.6,15.7-9.6,28.3v63.9H607V37.5h37.5v17.9C649.2,48.8,655.5,43.9,663.5,40.5z"/>
			<path class="st2" d="M738.2,164.1c-14.5-7.8-25.9-18.6-34.2-32.4s-12.4-29.5-12.4-46.9s4.1-33.1,12.4-46.9
				c8.3-13.8,19.7-24.6,34.2-32.4C752.7-2.3,769-6.2,787.1-6.2c15.2,0,29,2.7,41.4,8c12.3,5.4,22.7,13.1,31,23.1L833.4,49
				c-11.9-13.7-26.6-20.6-44.2-20.6c-10.9,0-20.6,2.4-29.2,7.2c-8.5,4.8-15.2,11.4-20,20c-4.8,8.5-7.2,18.3-7.2,29.2
				s2.4,20.6,7.2,29.2c4.8,8.5,11.4,15.2,20,20c8.5,4.8,18.3,7.2,29.2,7.2c17.6,0,32.3-7,44.2-20.9l26.1,24.1
				c-8.4,10.2-18.8,18-31.2,23.4s-26.2,8-41.5,8C768.9,175.8,752.7,171.9,738.2,164.1z"/>
			<path class="st2" d="M894.8,165.9c-11.3-5.9-20.2-14.2-26.5-24.8c-6.4-10.6-9.6-22.5-9.6-36c0-13.4,3.2-25.4,9.6-36
				c6.4-10.6,15.2-18.8,26.5-24.8c11.3-5.9,24.1-8.9,38.3-8.9s27,3,38.2,8.9c11.2,6,20,14.2,26.4,24.8s9.6,22.5,9.6,36
				c0,13.4-3.2,25.4-9.6,36c-6.4,10.6-15.2,18.8-26.4,24.8s-24,8.9-38.2,8.9C918.9,174.8,906.1,171.8,894.8,165.9z M957.9,132.4
				c6.5-6.8,9.7-15.9,9.7-27.3s-3.2-20.5-9.7-27.3s-14.7-10.2-24.8-10.2s-18.4,3.4-24.9,10.2s-9.8,15.9-9.8,27.3s3.3,20.5,9.8,27.3
				s14.8,10.2,24.9,10.2S951.4,139.2,957.9,132.4z"/>
			<path class="st2" d="M1145.7,50.6c10.3,10.1,15.5,25,15.5,44.8v77.4H1122v-71.4c0-10.7-2.3-18.7-7-24s-11.5-7.9-20.4-7.9
				c-9.9,0-17.8,3.1-23.6,9.2c-5.9,6.1-8.8,15.2-8.8,27.3v66.9H1023V37.5h37.5v15.8c5.2-5.7,11.6-10.1,19.4-13.2
				c7.7-3.1,16.2-4.7,25.4-4.7C1121.8,35.5,1135.4,40.5,1145.7,50.6z"/>
			<path class="st2" d="M1229,40.5h34.7v30.2H1230v102.1h-39.2V70.7H1170V40.5h20.9v-6c0-15.4,4.6-27.7,13.7-36.7
				c9.1-9.1,22-13.6,38.6-13.6c5.9,0,11.4,0.6,16.7,1.9c5.3,1.3,9.7,3.1,13.2,5.4l-10.3,28.4c-4.5-3.2-9.8-4.8-15.8-4.8
				c-11.9,0-17.9,6.5-17.9,19.6L1229,40.5L1229,40.5z"/>
		</g>
	</g>
	<g>
		<g>
			<path class="st3" d="M1347.3,150c-15.2-11.4-24.3-30.1-24.3-50.2c0-1,0-2,0.1-3c0.7-9.8,5.5-27.2,24.1-54.2
				c11.7-16.9,24.5-31.3,29.8-36.4l2.3-2.2l2.7,3.1c6.5,7.4,23.9,27.1,37.1,48.7l-5.2,3.2c-12-19.6-27.6-37.8-35-46.1
				c-13.2,13.6-47.8,56.1-49.8,84.4c-0.1,0.9-0.1,1.7-0.1,2.6c0,18.1,8.2,35,21.9,45.3L1347.3,150z"/>
		</g>
		<g>
			<path class="st4" d="M1430.6,177.8v-6.1c24.5,0,44.4-21.8,44.4-48.6c0-12-7.8-35.2-44.5-77.1c-8.4,8.7-27.2,31.2-37.4,52.8
				l-5.5-2.6c11.7-24.6,34.1-50.3,41-56.8l2.3-2.2l2.7,3c31.6,35.8,47.6,63.7,47.6,83C1481.1,153.3,1458.5,177.8,1430.6,177.8z"/>
		</g>
		<g>
			<path class="st5" d="M1386.3,224.6c-26.2,0-47.6-23.1-47.6-51.6c0-0.8,0-1.7,0.1-2.6c0.9-12.1,7.7-27.4,20.3-45.7
				c9.8-14.2,20.6-26.3,25.1-30.6l2.3-2.2l2.6,3c29.7,33.6,44.8,59.9,44.8,78.1C1433.9,201.5,1412.6,224.6,1386.3,224.6z
				 M1386.2,100.8c-5.1,5.3-13.9,15.6-22,27.4c-11.8,17.1-18.5,31.9-19.2,42.7c-0.1,0.7-0.1,1.4-0.1,2.1c0,25.1,18.6,45.5,41.5,45.5
				s41.5-20.4,41.5-45.5C1427.8,161.8,1420.6,140.1,1386.2,100.8z"/>
		</g>
	</g>
</g>
<g>
	<g>
		<g>
			<g>
				<path class="st6" d="M661,313c0.1-0.1-0.1-0.3-0.2-0.2c-2.3,1.7-10.5,7.1-19.3,7.1c-7.3,0-9.3-2.8-13.4-2.8
					c-2.8,0-4.7,1-5.4,1.4c-0.1,0.1-0.1,0.2,0.1,0.2c1.4,0.1,6,0.7,6,3.1c0,2.8-6.1,3.9-10.4,3.9c-4.2,0-11.9,1.1-16,6.7
					c-0.1,0.1,0,0.3,0.2,0.2c1.3-0.6,5.3-2.2,11-2.2c4.9,0,9.8,1.5,16.3,1.5C636.4,332,650.6,327.9,661,313z"/>
			</g>
			<g>
				<path class="st6" d="M614.9,333.6c-6.7,0-11.5,0.9-14.7,4.2c-3.5,3.6-2.8,5.3-6.5,7.3c-0.1,0.1-0.1,0.3,0.1,0.3
					c1.6,0,6.2-0.5,10.1-4.6c0,0,4.5-5.9,11.2-7.1C615.2,333.7,615.3,333.6,614.9,333.6z"/>
			</g>
			<g>
				<path class="st6" d="M599.9,317c-10.4-2.3-13.8-17.7-28.5-17.7c-6.3,0-9.3,2.2-10.1,3.1c-0.1,0.1-0.1,0.2,0.1,0.1
					c0.7-0.3,2.3-0.8,4.8-0.8c9,0,7,15.3,33.6,15.5C599.9,317.2,600,317,599.9,317z"/>
			</g>
			<g>
				<path class="st6" d="M568.9,307.9c0.2,0,0.2-0.2,0.1-0.3c-1-0.6-3.7-2.2-6.8-2.2c-9,0-9,8-16,8.4c-0.2,0-0.2,0.2-0.1,0.3
					c1,0.5,3.3,1.6,6.2,1.6C560.7,315.8,559.7,308.2,568.9,307.9z"/>
			</g>
			<g>
				<path class="st6" d="M613.7,300.8c-1.2,0.2-3.2,0.6-6.2,0.6c-7.7,0-12.1-9.2-26.4-9.2c-6.2,0-10.6,3.1-11.8,4
					c-0.1,0.1,0,0.2,0.1,0.2c1.7-0.4,3.5-0.9,8.8-0.9c8.7,0,9,7.7,26.7,7.7c4,0,7.5-1.5,8.9-2.3
					C613.9,300.9,613.8,300.7,613.7,300.8z"/>
			</g>
			<g>
				<path class="st6" d="M622.3,269.6c0.1-0.1,0.3,0,0.2,0.2c-2.2,3.1-11.1,14-29.5,14c-9.6,0-11-3-16.9-3c-5.5,0-9.2,4.7-9.7,8
					c0,0.1-0.2,0.1-0.2,0c0-3.9,1.7-15.3,14.4-15.3c6.9,0,10.8,3.7,19.9,3.7C612.6,277.1,620,271.5,622.3,269.6z"/>
			</g>
			<g>
				<path class="st6" d="M591.7,305.8c1.7,1.9,9.7,10.2,22.7,10.2c14.6,0,20.9-23.4,31.8-23.4c7.2,0,7.3,5.2,7.3,6.6
					c0,4.2-5.4,15.1-16.7,16.2c-0.1,0-0.2,0.2,0,0.2c1.6,0.2,4.3,0.4,6.2,0.4c2.8,0,29.5-3.6,29.5-34.6c0-28,15-26.6,17.9-26.1
					c0.1,0,0.2-0.1,0.1-0.2c-2-1.6-11.5-8.3-28.3-8.3c-32.4,0-34,39.1-64.4,39.5c-0.1,0-0.2,0.2-0.1,0.2c1.5,0.8,6.8,3.4,10.3,3.4
					c12.2,0,12.7-9.1,20.4-9.1c4.5,0,5.8,2.6,5.8,5.7c0,2.8-5.7,20.8-31.8,20.8c-6.2,0-9.5-1.3-10.6-1.7
					C591.7,305.6,591.6,305.7,591.7,305.8z M665.4,251.6c0-0.1,0-0.2,0.1-0.1c2.9,0.2,5.6,0.5,8,1c0.1,0,0.1,0.1,0.1,0.2
					c-0.3,0.5-1.7,2.1-4.4,2.1C666.5,254.8,665.6,252.2,665.4,251.6z"/>
			</g>
			<g>
				<path class="st6" d="M630.1,259.7c0.1,0,0.1,0.1,0.1,0.2c-1.3,1.5-11.8,12.7-26.1,12.7c-4.2,0-7.2-1.2-8.4-1.9
					c-0.1-0.1-0.2-0.3,0.1-0.2c0.9,0.2,2.7,0.5,4.7,0.5C610.9,271,611.5,259.4,630.1,259.7z"/>
			</g>
		</g>
		<g>
			<g>
				<path class="st6" d="M572,317.5h-1V314h-1.2v-0.9h3.3v0.9H572V317.5z M565.6,317.5h-0.9l0.2-4.4h1l1.1,2.8l1-2.8h1l0.1,4.4h-0.9
					l-0.1-2.5l-0.7,2h-0.9l-0.8-2L565.6,317.5z"/>
			</g>
		</g>
	</g>
	<g class="st0">
		
			<linearGradient id="SVGID_1_" gradientUnits="userSpaceOnUse" x1="-1773.5636" y1="-4776.8584" x2="-1681.5793" y2="-4776.8584" gradientTransform="matrix(-0.6049 -0.7963 -0.7963 0.6049 -4385.4385 1806.2089)">
			<stop  offset="0" style="stop-color:#221F1F;stop-opacity:0"/>
			<stop  offset="7.361960e-02" style="stop-color:#E5E5E4;stop-opacity:0"/>
			<stop  offset="0.3814" style="stop-color:#E8A8BC;stop-opacity:0.4068"/>
			<stop  offset="0.6893" style="stop-color:#E96D9A;stop-opacity:0.8136"/>
			<stop  offset="0.8304" style="stop-color:#EA4E8D"/>
		</linearGradient>
		<path class="st7" d="M458.2,262.5c0,0-10.7,11.7-19.5,19.6c-8.8,7.9-10.8,15.8-10.7,20.5c0.8,28.3,20.6,39.1,40.4,38.6
			c19-0.5,25.6-22.2,23-42.7s-2.4-49.8-22.1-68.4C469.3,230,469.9,250.3,458.2,262.5z"/>
		
			<linearGradient id="SVGID_00000120534489476194663640000004958443023347700890_" gradientUnits="userSpaceOnUse" x1="-1689.006" y1="-4810.2998" x2="-1757.5488" y2="-4755.5269" gradientTransform="matrix(-0.6049 -0.7963 -0.7963 0.6049 -4385.4385 1806.2089)">
			<stop  offset="0" style="stop-color:#221F1F;stop-opacity:0"/>
			<stop  offset="7.361960e-02" style="stop-color:#E5E5E4;stop-opacity:0"/>
			<stop  offset="0.3814" style="stop-color:#E8A8BC;stop-opacity:0.4068"/>
			<stop  offset="0.6893" style="stop-color:#E96D9A;stop-opacity:0.8136"/>
			<stop  offset="0.8304" style="stop-color:#EA4E8D"/>
		</linearGradient>
		
			<path style="display:inline;opacity:0.5;fill:url(#SVGID_00000120534489476194663640000004958443023347700890_);enable-background:new    ;" d="
			M451.3,263.1c-9.8,11-23.3,27.7-23.3,39.5c0,11.4,22.2,17.2,38.5,17.2c11.9,0,35.8-5.6,35.8-14.6c0-19.5-1.6-19.8-10.2-42.6
			c-2.2-5.8,7.3,43.1-25.4,41.7c-32.7-1.4-32.9-19.8-13-34.9c7.9-6,6.7-9.3,6.7-9.3"/>
		
			<linearGradient id="SVGID_00000034782645313202589340000001306875107822175889_" gradientUnits="userSpaceOnUse" x1="-1774.4261" y1="-4782.4194" x2="-1674.3607" y2="-4782.4194" gradientTransform="matrix(-0.6049 -0.7963 -0.7963 0.6049 -4385.4385 1806.2089)">
			<stop  offset="0" style="stop-color:#221F1F;stop-opacity:0"/>
			<stop  offset="7.361960e-02" style="stop-color:#E5E5E4;stop-opacity:0"/>
			<stop  offset="0.3814" style="stop-color:#E8A8BC;stop-opacity:0.4068"/>
			<stop  offset="0.6893" style="stop-color:#E96D9A;stop-opacity:0.8136"/>
			<stop  offset="0.8304" style="stop-color:#EA4E8D"/>
		</linearGradient>
		
			<path style="display:inline;opacity:0.5;fill:url(#SVGID_00000034782645313202589340000001306875107822175889_);enable-background:new    ;" d="
			M448.9,265.7c0,0,1.4,10.6-1.4,24.8s-7.6,45.8,23.7,51.1c14.7-0.3,19-20.4,19-20.4s9.2-79.7-27.7-95c-0.5,5.8-1,17.5-5.4,27.6
			C457.1,253.8,454.9,259.2,448.9,265.7z"/>
		
			<linearGradient id="SVGID_00000091722500638373368070000007933450467259784593_" gradientUnits="userSpaceOnUse" x1="-1687.3268" y1="-4770.0137" x2="-1770.1599" y2="-4801.4565" gradientTransform="matrix(-0.6049 -0.7963 -0.7963 0.6049 -4385.4385 1806.2089)">
			<stop  offset="0" style="stop-color:#221F1F;stop-opacity:0"/>
			<stop  offset="7.361960e-02" style="stop-color:#E5E5E4;stop-opacity:0"/>
			<stop  offset="0.3814" style="stop-color:#E8A8BC;stop-opacity:0.4068"/>
			<stop  offset="0.6893" style="stop-color:#E96D9A;stop-opacity:0.8136"/>
			<stop  offset="0.8304" style="stop-color:#EA4E8D"/>
		</linearGradient>
		
			<path style="display:inline;opacity:0.5;fill:url(#SVGID_00000091722500638373368070000007933450467259784593_);enable-background:new    ;" d="
			M458.2,250.1c0,0,3.2-6.9,4.2-23.9c0,0,8.8,1.4,18,15.6C487,252,496,269,500.2,283.9c5.6,19.9,0.3,38.3-10,47.3
			c-12.4,10.7-24.9,11.3-32.1,5.7c-6.5-5.1-10.7-10.3-12-19.7l2.4,0.6c0,0,1.4,6.5,6.2,12.4c3.6,4.5,13.2,10.8,19.3,8
			c9-4,8.8-12.8,5.8-19.9c-3.3-7.8-13.4-14.3-15.4-25.9c-2.2-12.6,1.8-15.9,0.8-27.3C464.3,255.5,458.2,250.1,458.2,250.1z"/>
		
			<linearGradient id="SVGID_00000058569998812499899570000009387372556646547370_" gradientUnits="userSpaceOnUse" x1="-1718.1829" y1="-4824.8252" x2="-1709.2629" y2="-4792.8081" gradientTransform="matrix(-0.6049 -0.7963 -0.7963 0.6049 -4385.4385 1806.2089)">
			<stop  offset="0" style="stop-color:#221F1F;stop-opacity:0"/>
			<stop  offset="7.361960e-02" style="stop-color:#E5E5E4;stop-opacity:0"/>
			<stop  offset="0.3814" style="stop-color:#E8A8BC;stop-opacity:0.4068"/>
			<stop  offset="0.6893" style="stop-color:#E96D9A;stop-opacity:0.8136"/>
			<stop  offset="0.8304" style="stop-color:#EA4E8D"/>
		</linearGradient>
		
			<path style="display:inline;opacity:0.5;fill:url(#SVGID_00000058569998812499899570000009387372556646547370_);enable-background:new    ;" d="
			M475.9,298.5c0,0,0.3-11.5,1.8-20c1.4-8.1,4.7-19.3-0.9-28.8c-5.5-9.5-15-15-15-15s-1.1,6.5-2.7,13.8c0,0,9,8.9,9.9,22
			C469.5,276.8,475.9,298.5,475.9,298.5z"/>
		<g class="st12">
			
				<linearGradient id="SVGID_00000097460419758856925520000008316187080568535453_" gradientUnits="userSpaceOnUse" x1="-1739.0774" y1="-4791.9976" x2="-1690.1412" y2="-4791.9976" gradientTransform="matrix(-0.6049 -0.7963 -0.7963 0.6049 -4385.4385 1806.2089)">
				<stop  offset="0" style="stop-color:#221F1F;stop-opacity:0"/>
				<stop  offset="7.361960e-02" style="stop-color:#E5E5E4;stop-opacity:0"/>
				<stop  offset="0.3814" style="stop-color:#E8A8BC;stop-opacity:0.4068"/>
				<stop  offset="0.6893" style="stop-color:#E96D9A;stop-opacity:0.8136"/>
				<stop  offset="0.8304" style="stop-color:#EA4E8D"/>
			</linearGradient>
			<path style="fill:url(#SVGID_00000097460419758856925520000008316187080568535453_);" d="M475.1,297.9c0,0-1.6-15.9-3.6-24.6
				c-2.5-10.8-4.9-20.3-12.4-24.7"/>
		</g>
		
			<linearGradient id="SVGID_00000061457884498189327490000014966733780744512147_" gradientUnits="userSpaceOnUse" x1="-1738.1514" y1="-4749.0767" x2="-1777.5824" y2="-4764.0444" gradientTransform="matrix(-0.6049 -0.7963 -0.7963 0.6049 -4385.4385 1806.2089)">
			<stop  offset="0" style="stop-color:#221F1F;stop-opacity:0"/>
			<stop  offset="7.361960e-02" style="stop-color:#E5E5E4;stop-opacity:0"/>
			<stop  offset="0.3814" style="stop-color:#E8A8BC;stop-opacity:0.4068"/>
			<stop  offset="0.6893" style="stop-color:#E96D9A;stop-opacity:0.8136"/>
			<stop  offset="0.8304" style="stop-color:#EA4E8D"/>
		</linearGradient>
		
			<path style="display:inline;opacity:0.4;fill:url(#SVGID_00000061457884498189327490000014966733780744512147_);enable-background:new    ;" d="
			M469.4,345.4c0,0-5.4-2,3-3.4c8.3-1.4,5.5-1,5.5-1l2.7-0.3c0,0,6.1-5.8,0.9-18.2c-9.3,2-20.5,2.7-34.3-0.5c0.1,4.1,3,9.5,4.8,11.8
			c3,4,4.9,5.8,8.3,7.9C463.8,343.8,466.5,344.8,469.4,345.4z"/>
		
			<linearGradient id="SVGID_00000099648009189382013460000006603971971175651753_" gradientUnits="userSpaceOnUse" x1="-3260.8025" y1="-1881.1528" x2="-3361.0789" y2="-1801.022" gradientTransform="matrix(-0.9625 0.2714 -0.2714 -0.9625 -3221.8167 -569.42)">
			<stop  offset="0" style="stop-color:#221F1F;stop-opacity:0"/>
			<stop  offset="0.3431" style="stop-color:#E5E5E4;stop-opacity:0"/>
			<stop  offset="0.3509" style="stop-color:#E5E2E2;stop-opacity:1.201278e-02"/>
			<stop  offset="0.4403" style="stop-color:#E7BECA;stop-opacity:0.1501"/>
			<stop  offset="0.5315" style="stop-color:#E89EB6;stop-opacity:0.2908"/>
			<stop  offset="0.6226" style="stop-color:#E985A6;stop-opacity:0.4316"/>
			<stop  offset="0.714" style="stop-color:#E9709B;stop-opacity:0.5726"/>
			<stop  offset="0.8056" style="stop-color:#EA5E93;stop-opacity:0.714"/>
			<stop  offset="0.8976" style="stop-color:#EA538E;stop-opacity:0.8561"/>
			<stop  offset="0.9908" style="stop-color:#EA4E8D"/>
		</linearGradient>
		<path style="display:inline;fill:url(#SVGID_00000099648009189382013460000006603971971175651753_);" d="M433.5,323.8
			c0,0,14.2,5,35.8-24.4c21.6-29.5,16-41.3,15.6-42.8c0,0,5.8,20.3,5.8,28.9c0,6.7-32.3,61.3-51.7,45.3
			C437.5,329.3,434.6,325.5,433.5,323.8z"/>
	</g>
	<g>
		<path class="st6" d="M769.8,253.2h-18.6c-2.6,0-4.6,2.1-4.6,4.6v69.4c0,2.6,2.1,4.6,4.6,4.6h15.5c2.6,0,4.6-2.1,4.6-4.6v-2.8
			c0-2.6-2.1-4.6-4.6-4.6h-3.4c-2.6,0-4.6-2.1-4.6-4.6v-45.3c0-2.6,2.1-4.6,4.6-4.6h3.3c1,0,1.9,0.3,2.7,0.9l42.9,31
			c3.1,2.2,7.3,0,7.3-3.7v-2c0-1.5-0.7-2.8-1.9-3.7l-45-33.6C771.7,253.5,770.7,253.2,769.8,253.2z"/>
		<path class="st6" d="M820.3,331.9h18.6c2.6,0,4.6-2.1,4.6-4.6v-69.4c0-2.6-2.1-4.6-4.6-4.6h-15.5c-2.6,0-4.6,2.1-4.6,4.6v2.8
			c0,2.6,2.1,4.6,4.6,4.6h3.4c2.6,0,4.6,2.1,4.6,4.6v45.3c0,2.6-2.1,4.6-4.6,4.6h-3.3c-1,0-1.9-0.3-2.7-0.9l-42.9-31
			c-3.1-2.2-7.3,0-7.3,3.7v2c0,1.5,0.7,2.8,1.9,3.7l45,33.6C818.4,331.6,819.3,331.9,820.3,331.9z"/>
	</g>
	<g>
		<path class="st6" d="M1037,266c-0.1-0.3-0.4-0.4-0.6-0.2c-2.2,1.5-3.5,2.2-5.4,3.3v0.3v-0.3c0,0-8.5,4.5-18.7,8.1
			c-2.6,1-5.1,1.8-7.3,2.6c1.6-2.3,2.7-4.8,3.3-7.6c1.2-5.6,0.3-11.2-2.6-15.7c-2.9-4.7-7.8-7.9-13.5-9.2c-2.4-0.5-4.8-0.6-7.2-0.3
			c-8.8,1.2-15.9,7.8-17.8,16.4c-1.3,5.9,0.1,11.7,3.3,16.3c-10.8,3.1-17.9,10.4-18.5,14.7l0,0c-1,0.7-2,1.3-3,2
			c-4.8,3-9.6,6-11.6,7.2c-0.1,0-0.2,0.1-0.3,0.1c-3.3-4-4.9-9.4-4-15c1.7-10.2,11.5-17.1,21.7-15.4c1.6,0.3,3.1,0.7,4.5,1.4
			c0.4-0.6,7.9-11,0.2-20.3c-2.7-3.3-6.6-5.6-10.8-6.3c-0.1,0-0.1,0-0.2,0c-17.6-2.9-34.2,8.9-37.1,26.5c-2.4,14.2,4.9,27.8,17.1,34
			c-6.3,3.4-12,6.3-18.7,10.1c0,0,0,0-0.1,0.1c-2.9,1.7-5,4.1-6.5,6.2c-2.2,3-1.6,7.2,1.5,9.3l0.1,0.1c0.9,0.6,2,0.3,2.5-0.7
			c0.4-0.8,3.1-7.3,4.4-10.2c0.4,0.8,0.8,1.5,1,2s0.8,0.7,1.3,0.5c10.2-3.3,17.7-3.9,23-4c0,0,0,0-0.1,0.1c-0.6,0.7-1.4,2.5-2.1,5
			c-0.4,1.4-0.5,2.4-0.5,3.2l0,0v0.1c0.1,1.6,0.8,2.3,1.9,2.2c0.1,0,0.1,0,0.1,0l0,0l0,0c0.7-0.1,1.5-2.7,2-4.5
			c0.2-0.6,0.3-1.1,0.4-1.7c0-0.1,0-0.2,0-0.2c1.4,3.1,3.9,7,8.1,8.3c8.1,2.5,25-19.4,25-19.4c20.1-7.2,26.7-12.3,32.4-20.6l0.5-0.8
			c0.2-0.1,2.2-0.9,2.3-1c10.9-5,22.5-13.6,24.3-14.9l0,0c0,0,3.3-2.4,5.5-5.6C1038.3,269.8,1037.4,267.1,1037,266z M977.5,303.3
			l-0.5-6.6c-4.1,1.2-9.2,0.9-12.3-3.4c-0.3-0.4-0.1-1,0.4-1.1l0,0c2.8,4.5,8,4.3,12.2,3.2l0,0c2.9-0.8,4.9-2,6.6-3.1
			c0.1-0.1,0.3-0.1,0.4,0C986,295.4,985.2,301.3,977.5,303.3z M998.5,284.3c-1.8,1.2-3.8,2-5.8,2.6c-6.7,2.1-11.1-1.5-11.9-2.6
			c-0.1-0.1,0-0.2,0.1-0.2c1.2,0.5,5.9,2.2,9.8,0.9c-1.2-4,0.8-11.6,11.2-14c0,0,1-0.2,1.5-0.3l0,0c0,0,0.9,0,1.4-0.6
			c0.2-0.1,0.3-0.3,0.4-0.5c0.2-0.1,0.2-0.8,0.2-1c0-0.1,0-0.1,0-0.1l0,0c0-0.3,0-0.7-0.5-1.2c-0.6-0.5-2.4-1-2.6-1
			c-13.3-4.7-20-3.7-20.4-3.8l0,0l0,0l0,0c-0.1-0.3-0.5-1-0.5-1.1c-1.2-3.1-0.7-5.4-0.8-5.6c-0.5-0.6-1.6-1-2.4-0.3
			c-1.8,1.6-2.7,5.9-2.7,5.8c-0.2-1.2-0.3-3.1,0.4-6.1c0.2-1-0.2-2.1-1.1-2.3c2.9-2.5,6.4-4.2,10.4-4.7c2.2-0.3,4.5-0.2,6.7,0.3
			c5.4,1.2,10,4.2,12.7,8.6c2.7,4.3,3.6,9.6,2.5,14.8C1005.9,277,1002.9,281.4,998.5,284.3z"/>
	</g>
	<g>
		
			<linearGradient id="SVGID_00000116231721234919000270000009682298276331443377_" gradientUnits="userSpaceOnUse" x1="-1773.5636" y1="-4776.8584" x2="-1681.5793" y2="-4776.8584" gradientTransform="matrix(-0.6049 -0.7963 -0.7963 0.6049 -4385.4385 1806.2089)">
			<stop  offset="0" style="stop-color:#221F1F;stop-opacity:0"/>
			<stop  offset="7.361960e-02" style="stop-color:#E5E5E4;stop-opacity:0"/>
			<stop  offset="0.4153" style="stop-color:#C692B5;stop-opacity:0.4515"/>
			<stop  offset="0.7007" style="stop-color:#B45695;stop-opacity:0.8287"/>
			<stop  offset="0.8304" style="stop-color:#AD3A8A"/>
		</linearGradient>
		<path style="fill:url(#SVGID_00000116231721234919000270000009682298276331443377_);" d="M458.2,262.5c0,0-10.7,11.7-19.5,19.6
			c-8.8,7.9-10.8,15.8-10.7,20.5c0.8,28.3,20.6,39.1,40.4,38.6c19-0.5,25.6-22.2,23-42.7s-2.4-49.8-22.1-68.4
			C469.3,230,469.9,250.3,458.2,262.5z"/>
		
			<linearGradient id="SVGID_00000096038533293876398120000000821174344075303324_" gradientUnits="userSpaceOnUse" x1="-1689.006" y1="-4810.2998" x2="-1757.5488" y2="-4755.5269" gradientTransform="matrix(-0.6049 -0.7963 -0.7963 0.6049 -4385.4385 1806.2089)">
			<stop  offset="0" style="stop-color:#221F1F;stop-opacity:0"/>
			<stop  offset="7.361960e-02" style="stop-color:#E5E5E4;stop-opacity:0"/>
			<stop  offset="0.4153" style="stop-color:#C692B5;stop-opacity:0.4515"/>
			<stop  offset="0.7007" style="stop-color:#B45695;stop-opacity:0.8287"/>
			<stop  offset="0.8304" style="stop-color:#AD3A8A"/>
		</linearGradient>
		<path style="opacity:0.5;fill:url(#SVGID_00000096038533293876398120000000821174344075303324_);enable-background:new    ;" d="
			M451.3,263.1c-9.8,11-23.3,27.7-23.3,39.5c0,11.4,22.2,17.2,38.5,17.2c11.9,0,35.8-5.6,35.8-14.6c0-19.5-1.6-19.8-10.2-42.6
			c-2.2-5.8,7.3,43.1-25.4,41.7c-32.7-1.4-32.9-19.8-13-34.9c7.9-6,6.7-9.3,6.7-9.3"/>
		
			<linearGradient id="SVGID_00000016768619209823506400000013392167106445751178_" gradientUnits="userSpaceOnUse" x1="-1774.4261" y1="-4782.4194" x2="-1674.3607" y2="-4782.4194" gradientTransform="matrix(-0.6049 -0.7963 -0.7963 0.6049 -4385.4385 1806.2089)">
			<stop  offset="0" style="stop-color:#221F1F;stop-opacity:0"/>
			<stop  offset="7.361960e-02" style="stop-color:#E5E5E4;stop-opacity:0"/>
			<stop  offset="0.4165" style="stop-color:#C692B5;stop-opacity:0.4515"/>
			<stop  offset="0.7029" style="stop-color:#B45695;stop-opacity:0.8287"/>
			<stop  offset="0.833" style="stop-color:#AD3A8A"/>
		</linearGradient>
		<path style="opacity:0.5;fill:url(#SVGID_00000016768619209823506400000013392167106445751178_);enable-background:new    ;" d="
			M448.9,265.7c0,0,1.4,10.6-1.4,24.8s-7.6,45.8,23.7,51.1c14.7-0.3,19-20.4,19-20.4s9.2-79.7-27.7-95c-0.5,5.8-1,17.5-5.4,27.6
			C457.1,253.8,454.9,259.2,448.9,265.7z"/>
		
			<linearGradient id="SVGID_00000021105201046330574850000011437405571609038751_" gradientUnits="userSpaceOnUse" x1="-1687.3268" y1="-4770.0137" x2="-1770.1599" y2="-4801.4565" gradientTransform="matrix(-0.6049 -0.7963 -0.7963 0.6049 -4385.4385 1806.2089)">
			<stop  offset="0" style="stop-color:#221F1F;stop-opacity:0"/>
			<stop  offset="7.361960e-02" style="stop-color:#E5E5E4;stop-opacity:0"/>
			<stop  offset="0.4147" style="stop-color:#C692B5;stop-opacity:0.4515"/>
			<stop  offset="0.6996" style="stop-color:#B45695;stop-opacity:0.8287"/>
			<stop  offset="0.829" style="stop-color:#AD3A8A"/>
		</linearGradient>
		<path style="opacity:0.5;fill:url(#SVGID_00000021105201046330574850000011437405571609038751_);enable-background:new    ;" d="
			M458.2,250.1c0,0,3.2-6.9,4.2-23.9c0,0,8.8,1.4,18,15.6C487,252,496,269,500.2,283.9c5.6,19.9,0.3,38.3-10,47.3
			c-12.4,10.7-24.9,11.3-32.1,5.7c-6.5-5.1-10.7-10.3-12-19.7l2.4,0.6c0,0,1.4,6.5,6.2,12.4c3.6,4.5,13.2,10.8,19.3,8
			c9-4,8.8-12.8,5.8-19.9c-3.3-7.8-13.4-14.3-15.4-25.9c-2.2-12.6,1.8-15.9,0.8-27.3C464.3,255.5,458.2,250.1,458.2,250.1z"/>
		
			<linearGradient id="SVGID_00000092437282962611747360000014392223466012524454_" gradientUnits="userSpaceOnUse" x1="-1718.1829" y1="-4824.8252" x2="-1709.2629" y2="-4792.8081" gradientTransform="matrix(-0.6049 -0.7963 -0.7963 0.6049 -4385.4385 1806.2089)">
			<stop  offset="0" style="stop-color:#221F1F;stop-opacity:0"/>
			<stop  offset="7.361960e-02" style="stop-color:#E5E5E4;stop-opacity:0"/>
			<stop  offset="0.4153" style="stop-color:#C692B5;stop-opacity:0.4515"/>
			<stop  offset="0.7007" style="stop-color:#B45695;stop-opacity:0.8287"/>
			<stop  offset="0.8304" style="stop-color:#AD3A8A"/>
		</linearGradient>
		<path style="opacity:0.5;fill:url(#SVGID_00000092437282962611747360000014392223466012524454_);enable-background:new    ;" d="
			M475.9,298.5c0,0,0.3-11.5,1.8-20c1.4-8.1,4.7-19.3-0.9-28.8c-5.5-9.5-15-15-15-15s-1.1,6.5-2.7,13.8c0,0,9,8.9,9.9,22
			C469.5,276.8,475.9,298.5,475.9,298.5z"/>
		<g class="st21">
			
				<linearGradient id="SVGID_00000036243023608533100980000000109332401792570019_" gradientUnits="userSpaceOnUse" x1="-1739.0774" y1="-4791.9976" x2="-1690.1412" y2="-4791.9976" gradientTransform="matrix(-0.6049 -0.7963 -0.7963 0.6049 -4385.4385 1806.2089)">
				<stop  offset="0" style="stop-color:#221F1F;stop-opacity:0"/>
				<stop  offset="7.361960e-02" style="stop-color:#E5E5E4;stop-opacity:0"/>
				<stop  offset="0.4153" style="stop-color:#C692B5;stop-opacity:0.4515"/>
				<stop  offset="0.7007" style="stop-color:#B45695;stop-opacity:0.8287"/>
				<stop  offset="0.8304" style="stop-color:#AD3A8A"/>
			</linearGradient>
			<path style="fill:url(#SVGID_00000036243023608533100980000000109332401792570019_);" d="M475.1,297.9c0,0-1.6-15.9-3.6-24.6
				c-2.5-10.8-4.9-20.3-12.4-24.7"/>
		</g>
		
			<linearGradient id="SVGID_00000163033026247994873600000000157151977332500137_" gradientUnits="userSpaceOnUse" x1="-1738.1514" y1="-4749.0767" x2="-1777.5824" y2="-4764.0444" gradientTransform="matrix(-0.6049 -0.7963 -0.7963 0.6049 -4385.4385 1806.2089)">
			<stop  offset="0" style="stop-color:#221F1F;stop-opacity:0"/>
			<stop  offset="7.361960e-02" style="stop-color:#E5E5E4;stop-opacity:0"/>
			<stop  offset="0.4153" style="stop-color:#C692B5;stop-opacity:0.4515"/>
			<stop  offset="0.7007" style="stop-color:#B45695;stop-opacity:0.8287"/>
			<stop  offset="0.8304" style="stop-color:#AD3A8A"/>
		</linearGradient>
		<path style="opacity:0.4;fill:url(#SVGID_00000163033026247994873600000000157151977332500137_);enable-background:new    ;" d="
			M469.4,345.4c0,0-5.4-2,3-3.4c8.3-1.4,5.5-1,5.5-1l2.7-0.3c0,0,6.1-5.8,0.9-18.2c-9.3,2-20.5,2.7-34.3-0.5c0.1,4.1,3,9.5,4.8,11.8
			c3,4,4.9,5.8,8.3,7.9C463.8,343.8,466.5,344.8,469.4,345.4z"/>
		
			<linearGradient id="SVGID_00000045577656208395041740000008011612992473490321_" gradientUnits="userSpaceOnUse" x1="-3260.8025" y1="-1881.1528" x2="-3361.0789" y2="-1801.022" gradientTransform="matrix(-0.9625 0.2714 -0.2714 -0.9625 -3221.8167 -569.42)">
			<stop  offset="0" style="stop-color:#221F1F;stop-opacity:0"/>
			<stop  offset="0.3431" style="stop-color:#E5E5E4;stop-opacity:0"/>
			<stop  offset="0.3793" style="stop-color:#DDD2D9;stop-opacity:5.586135e-02"/>
			<stop  offset="0.4647" style="stop-color:#CEA9C2;stop-opacity:0.1878"/>
			<stop  offset="0.5518" style="stop-color:#C388AF;stop-opacity:0.3222"/>
			<stop  offset="0.639" style="stop-color:#BA6FA1;stop-opacity:0.4568"/>
			<stop  offset="0.7263" style="stop-color:#B45996;stop-opacity:0.5916"/>
			<stop  offset="0.8138" style="stop-color:#B0498F;stop-opacity:0.7267"/>
			<stop  offset="0.9018" style="stop-color:#AE3E8B;stop-opacity:0.8625"/>
			<stop  offset="0.9908" style="stop-color:#AD3A8A"/>
		</linearGradient>
		<path style="fill:url(#SVGID_00000045577656208395041740000008011612992473490321_);" d="M433.5,323.8c0,0,14.2,5,35.8-24.4
			c21.6-29.5,16-41.3,15.6-42.8c0,0,5.8,20.3,5.8,28.9c0,6.7-32.3,61.3-51.7,45.3C437.5,329.3,434.6,325.5,433.5,323.8z"/>
	</g>
</g>
<path class="st2" d="M999.9,34.6c0,5.7-4.5,10.3-10.2,10.3l0,0c-5.7,0-10.2-4.6-10.2-10.2c0-5.7,4.6-10.2,10.2-10.2
	C995.3,24.4,999.9,29,999.9,34.6z M998.2,34.6c0-4.7-3.8-8.4-8.4-8.4s-8.4,3.8-8.4,8.4c0,4.6,3.7,8.4,8.3,8.4
	c4.6,0.1,8.4-3.6,8.5-8.2C998.2,34.7,998.2,34.7,998.2,34.6z M991.9,36l2.4,3.4h-2l-1.9-3.1h-2.8v3.1h-1.7V29.2h4.1
	c2.7,0,4.1,1.3,4.1,3.5C994.2,34.2,993.3,35.5,991.9,36z M989.9,34.9c1.6,0,2.5-0.8,2.5-2.1s-0.9-2.1-2.5-2.1h-2.4v4.2L989.9,34.9
	L989.9,34.9z"/>
<path class="st2" d="M44.3,63.8v29h69.8v29.3H44.3v29.5H124v29.3H7.1V34.6h114.5v29.3L44.3,63.8L44.3,63.8z"/>
<path class="st2" d="M140.1,180.9V25.8h36.2v155.1H140.1z"/>
<path class="st2" d="M234.5,35.8c0,11.2-7.9,19.2-19,19.2s-19-7.9-19-19.2c0-11.1,7.9-19,19-19S234.5,24.8,234.5,35.8z M197.3,180.9
	V68.2h36v112.7H197.3z"/>
<path class="st2" d="M322.7,68.2h39.5L326.5,123l38.2,57.9h-41.6l-20.5-35.3l-23,35.3H240l38.5-57.7l-35.9-55H284l18.8,32.4
	L322.7,68.2z"/>
<path class="st2" d="M408.6,35.8c0,11.2-7.9,19.2-19,19.2s-19-7.9-19-19.2c0-11.1,7.9-19,19-19S408.6,24.8,408.6,35.8z M371.4,180.9
	V68.2h36v112.7H371.4z"/>
<path class="st2" d="M463.8,87.3c7.7-13.2,20.5-20.5,36.5-20.7v32.6c-20.9-1.9-34.7,7.9-36.5,23.8v57.9h-36.2V68.2h36.2V87.3z"/>
<path class="st2" d="M635.8,58l-21.5,25.5c-9.6-11.7-23.8-19.1-36.8-19.1c-23.2,0-40.8,18.4-40.8,42.4c0,24.5,17.6,43.1,40.8,43.1
	c12.3,0,26.5-6.7,36.8-17.1l21.7,23c-15.7,16.1-38.9,26.8-60.4,26.8c-44.1,0-76.9-32.4-76.9-75.2c0-42.2,33.7-74,78.2-74
	C598.6,33.3,621.2,42.9,635.8,58z"/>
<path class="st2" d="M755.2,124.5c0,34.7-24.7,57.7-61.4,57.7c-37,0-61.7-23-61.7-57.7S656.8,67,693.8,67
	C730.5,67,755.2,89.7,755.2,124.5z M668.4,124.9c0,17.6,10.2,29.3,25.3,29.3c14.8,0,25.1-11.7,25.1-29.3c0-17.3-10.2-29.3-25.1-29.3
	C678.7,95.6,668.4,107.5,668.4,124.9L668.4,124.9z"/>
<path class="st2" d="M880.8,109.8v71.1h-35.9v-61c0-13.2-7.7-21.3-19.9-21.3c-13.2,0-21.5,9.4-23,22.8V181h-36.2V68.2H802v18.4
	c7.9-13.2,20.9-19.9,37.6-20.1C864.5,66.6,880.8,83.5,880.8,109.8z"/>
<path class="st2" d="M940.1,65.1v8.2h25.5v23.8h-25.5v83.8h-35.7V97.1h-15.3V73.3h15.3V62.9c0-24.9,18.8-38.7,43.1-38.7
	c11.1,0,23,2.9,31.6,7.9l-12.8,25.3c-3.8-2.8-8.4-4.4-13.2-4.6C945.8,52.6,940.1,56.7,940.1,65.1z"/>
<g>
	<path class="st2" d="M1116.5,116.1c0,26.2-10.5,39-32.2,39s-32.2-12.8-32.2-39V33.3h-36.2v84.1c0,43.7,24.9,68.8,68.2,68.8
		s68.2-25.1,68.2-68.8V33.3h-35.8V116.1z"/>
	<path class="st2" d="M1235.6,94.1c-16.9-3.9-31.5-7.2-31.5-17.8c0-10.2,10-16.1,27.3-16.1c13.4,0,27.5,4,40.7,11.6l0.9,0.5
		l11.3-27.8l-0.6-0.4c-13.4-8.5-32.4-13.3-52.1-13.3c-38.6,0-63.5,18.5-63.5,47.2c0,33,30.4,40.1,54.8,45.7
		c17,3.9,31.6,7.3,31.6,18.2c0,9.7-9.9,15-27.7,15c-16.9,0-35.5-5.9-48.5-15.3l-0.9-0.7l-12.4,27.6l0.6,0.4
		c13.6,10.6,37.6,17.4,61,17.4c38.8,0,63.9-18.4,63.9-47C1290.5,106.6,1260.1,99.7,1235.6,94.1z"/>
</g>
</svg>
